<svg width="22" height="21" viewBox="0 0 22 21" fill="none" xmlns="http://www.w3.org/2000/svg">
<g clip-path="url(#clip0_251_5262)">
<path d="M1.80218 9.05217C1.88657 9.03847 1.97198 9.03215 2.05743 9.03326H16.608L16.2907 8.88569C15.9805 8.7389 15.6984 8.53913 15.4569 8.2954L11.3766 4.21507C10.8392 3.70208 10.7489 2.87683 11.1626 2.25976C11.6441 1.60219 12.5675 1.45942 13.2251 1.94091C13.2782 1.97984 13.3287 2.02226 13.3762 2.06792L20.7547 9.44646C21.3313 10.0224 21.3318 10.9568 20.7558 11.5334C20.7555 11.5338 20.7551 11.5342 20.7547 11.5346L13.3762 18.9131C12.7991 19.4886 11.8647 19.4873 11.2892 18.9102C11.2439 18.8648 11.2016 18.8165 11.1626 18.7655C10.7489 18.1485 10.8392 17.3232 11.3766 16.8102L15.4495 12.7225C15.666 12.5058 15.915 12.324 16.1874 12.1839L16.6301 11.9847H2.13864C1.38478 12.0127 0.723391 11.4861 0.581768 10.7451C0.451307 9.94059 0.997688 9.18267 1.80218 9.05217Z" fill="white"/>
</g>
<defs>
<clipPath id="clip0_251_5262">
<rect width="20.625" height="20.625" fill="white" transform="matrix(-1 0 0 1 21.1875 0.1875)"/>
</clipPath>
</defs>
</svg>
