<svg width="15" height="15" viewBox="0 0 15 15" fill="none" xmlns="http://www.w3.org/2000/svg">
<path d="M13.0591 0.882324H11.7355V2.20585C11.7355 2.47056 11.5149 2.64703 11.2943 2.64703C11.0738 2.64703 10.8532 2.47056 10.8532 2.20585V0.882324H3.79435V2.20585C3.79435 2.47056 3.57376 2.64703 3.35317 2.64703C3.13258 2.64703 2.91199 2.47056 2.91199 2.20585V0.882324H1.58847C0.9267 0.882324 0.441406 1.45585 0.441406 2.20585V3.79409H14.5591V2.20585C14.5591 1.45585 13.7649 0.882324 13.0591 0.882324ZM0.441406 4.72056V12.7941C0.441406 13.5882 0.9267 14.1176 1.63258 14.1176H13.1032C13.8091 14.1176 14.6032 13.5441 14.6032 12.7941V4.72056H0.441406ZM4.36788 12.1323H3.30905C3.13258 12.1323 2.95611 12 2.95611 11.7794V10.6764C2.95611 10.5 3.08847 10.3235 3.30905 10.3235H4.41199C4.58847 10.3235 4.76494 10.4559 4.76494 10.6764V11.7794C4.72082 12 4.58847 12.1323 4.36788 12.1323ZM4.36788 8.16174H3.30905C3.13258 8.16174 2.95611 8.02938 2.95611 7.80879V6.70585C2.95611 6.52938 3.08847 6.35291 3.30905 6.35291H4.41199C4.58847 6.35291 4.76494 6.48527 4.76494 6.70585V7.80879C4.72082 8.02938 4.58847 8.16174 4.36788 8.16174ZM7.89729 12.1323H6.79435C6.61788 12.1323 6.44141 12 6.44141 11.7794V10.6764C6.44141 10.5 6.57376 10.3235 6.79435 10.3235H7.89729C8.07376 10.3235 8.25023 10.4559 8.25023 10.6764V11.7794C8.25023 12 8.11788 12.1323 7.89729 12.1323ZM7.89729 8.16174H6.79435C6.61788 8.16174 6.44141 8.02938 6.44141 7.80879V6.70585C6.44141 6.52938 6.57376 6.35291 6.79435 6.35291H7.89729C8.07376 6.35291 8.25023 6.48527 8.25023 6.70585V7.80879C8.25023 8.02938 8.11788 8.16174 7.89729 8.16174ZM11.4267 12.1323H10.3238C10.1473 12.1323 9.97082 12 9.97082 11.7794V10.6764C9.97082 10.5 10.1032 10.3235 10.3238 10.3235H11.4267C11.6032 10.3235 11.7796 10.4559 11.7796 10.6764V11.7794C11.7796 12 11.6473 12.1323 11.4267 12.1323ZM11.4267 8.16174H10.3238C10.1473 8.16174 9.97082 8.02938 9.97082 7.80879V6.70585C9.97082 6.52938 10.1032 6.35291 10.3238 6.35291H11.4267C11.6032 6.35291 11.7796 6.48527 11.7796 6.70585V7.80879C11.7796 8.02938 11.6473 8.16174 11.4267 8.16174Z" fill="#2D64F4"/>
</svg>
