<svg width="20" height="20" viewBox="0 0 20 20" fill="none" xmlns="http://www.w3.org/2000/svg">
<path d="M12.2028 10.0001L19.6805 2.52203C19.8862 2.31618 19.9997 2.04155 20 1.7487C20 1.45569 19.8865 1.18073 19.6805 0.975204L19.0252 0.320082C18.8192 0.113741 18.5446 0.000732422 18.2514 0.000732422C17.9587 0.000732422 17.6841 0.113741 17.478 0.320082L10.0003 7.79764L2.52228 0.320082C2.31659 0.113741 2.04179 0.000732422 1.74878 0.000732422C1.4561 0.000732422 1.1813 0.113741 0.97561 0.320082L0.32 0.975204C-0.106667 1.40187 -0.106667 2.09585 0.32 2.52203L7.79789 10.0001L0.32 17.4778C0.114146 17.684 0.000813008 17.9586 0.000813008 18.2515C0.000813008 18.5443 0.114146 18.8189 0.32 19.025L0.975447 19.6801C1.18114 19.8863 1.4561 19.9994 1.74862 19.9994C2.04163 19.9994 2.31642 19.8863 2.52211 19.6801L10.0002 12.2024L17.4779 19.6801C17.6839 19.8863 17.9585 19.9994 18.2512 19.9994H18.2515C18.5444 19.9994 18.819 19.8863 19.025 19.6801L19.6803 19.025C19.886 18.8191 19.9995 18.5443 19.9995 18.2515C19.9995 17.9586 19.886 17.684 19.6803 17.478L12.2028 10.0001Z" fill="white"/>
</svg>
