<svg width="15" height="15" viewBox="0 0 15 15" fill="none" xmlns="http://www.w3.org/2000/svg">
<g clip-path="url(#clip0_192_14355)">
<path d="M8.4961 14.9707H6.09398C5.69275 14.9707 5.36636 14.6443 5.36636 14.2431V8.825H3.96492C3.56369 8.825 3.2373 8.4985 3.2373 8.09738V5.77572C3.2373 5.37449 3.56369 5.0481 3.96492 5.0481H5.36636V3.8855C5.36636 2.73273 5.72834 1.75198 6.41304 1.04942C7.10083 0.343666 8.06202 -0.0292969 9.1927 -0.0292969L11.0247 -0.0263214C11.4252 -0.0256348 11.751 0.300751 11.751 0.701294V2.8569C11.751 3.25813 11.4248 3.58452 11.0236 3.58452L9.79019 3.58498C9.41403 3.58498 9.31824 3.66039 9.29775 3.68351C9.26399 3.72185 9.22382 3.83022 9.22382 4.12949V5.04799H10.9309C11.0595 5.04799 11.184 5.07969 11.291 5.13943C11.5218 5.2684 11.6653 5.51228 11.6653 5.77583L11.6644 8.0975C11.6644 8.4985 11.338 8.82488 10.9368 8.82488H9.22382V14.2431C9.22382 14.6443 8.89733 14.9707 8.4961 14.9707ZM6.24573 14.0913H8.34435V8.43132C8.34435 8.16341 8.56236 7.94552 8.83015 7.94552H10.785L10.7858 5.92747H8.83003C8.56224 5.92747 8.34435 5.70957 8.34435 5.44167V4.12949C8.34435 3.78593 8.37925 3.39523 8.63857 3.10158C8.95191 2.74658 9.44573 2.70561 9.78996 2.70561L10.8717 2.70515V0.852814L9.19201 0.850067C7.37492 0.850067 6.24573 2.01324 6.24573 3.8855V5.44167C6.24573 5.70946 6.02783 5.92747 5.76004 5.92747H4.11667V7.94552H5.76004C6.02783 7.94552 6.24573 8.16341 6.24573 8.43132V14.0913ZM11.023 0.853043H11.0231H11.023Z" fill="#2D64F4"/>
</g>
<defs>
<clipPath id="clip0_192_14355">
<rect width="14.9707" height="15" fill="white"/>
</clipPath>
</defs>
</svg>
