<svg width="15" height="15" viewBox="0 0 15 15" fill="none" xmlns="http://www.w3.org/2000/svg">
<path d="M0.296002 12.2474C1.68475 13.1286 3.301 13.5942 4.96975 13.5942C7.4135 13.5942 9.65288 12.6555 11.276 10.9511C12.8291 9.31986 13.6835 7.12798 13.641 4.90361C14.2298 4.39986 14.9223 3.43798 14.9223 2.50048C14.9223 2.14111 14.5323 1.91298 14.216 2.09611C13.6629 2.42111 13.1585 2.50611 12.6398 2.36048C11.5804 1.32798 10.0035 1.11048 8.67475 1.82673C7.5135 2.45173 6.86788 3.59548 6.926 4.84548C4.96413 4.60611 3.15163 3.62236 1.88788 2.09361C1.68038 1.84423 1.28663 1.87361 1.12163 2.15611C0.512877 3.19861 0.519127 4.40673 1.0485 5.38236C0.796627 5.42673 0.641002 5.63861 0.641002 5.86798C0.641002 6.84861 1.08225 7.74986 1.79288 8.36486C1.66038 8.49236 1.61663 8.68173 1.67288 8.85048C1.98538 9.78923 2.69288 10.523 3.57725 10.8905C2.61538 11.3499 1.55163 11.503 0.604752 11.3867C0.114752 11.3205 -0.127123 11.9792 0.296002 12.2474ZM5.09788 11.0511C5.4485 10.7817 5.26225 10.2205 4.82225 10.2111C4.04725 10.1949 3.34163 9.81298 2.90225 9.21236C3.11413 9.19861 3.3335 9.16611 3.54225 9.10986C4.01788 8.98111 3.99538 8.29486 3.51225 8.19798C2.63538 8.02173 1.94725 7.38298 1.68913 6.56048C1.92475 6.61861 2.16475 6.65111 2.40413 6.65548C2.8785 6.65798 3.05788 6.04986 2.671 5.79548C1.79913 5.22111 1.42725 4.20673 1.6735 3.25298C3.196 4.79548 5.26163 5.72486 7.44663 5.82986C7.75975 5.84923 7.99475 5.55486 7.926 5.25673C7.62913 3.96986 8.34788 3.06798 9.11975 2.65236C9.8835 2.23986 11.1098 2.11111 12.0498 3.09736C12.3291 3.39173 13.2716 3.40298 13.751 3.29111C13.536 3.69611 13.2054 4.08048 12.896 4.29673C12.7641 4.38923 12.6885 4.54298 12.6966 4.70361C12.7973 6.75673 12.0323 8.79798 10.5979 10.3036C9.15288 11.8205 7.15475 12.6561 4.97038 12.6561C4.10163 12.6561 3.24975 12.5149 2.44475 12.2424C3.40725 12.0561 4.32163 11.6486 5.09788 11.0511Z" fill="#2D64F4"/>
</svg>
