<svg width="15" height="15" viewBox="0 0 15 15" fill="none" xmlns="http://www.w3.org/2000/svg">
<g clip-path="url(#clip0_192_14331)">
<path d="M14.4718 8.68357C14.9193 4.91669 14.2568 2.53857 13.0618 1.46294L13.0624 1.46232C11.1337 -0.374557 4.61993 -0.646432 2.31243 1.54482C1.27618 2.61669 0.911178 4.18982 0.871178 6.13732C0.831178 8.08544 0.783678 11.7348 4.1843 12.7248H4.18743L4.1843 14.2367C4.1843 14.2367 4.16118 14.8492 4.55243 14.9723C4.99993 15.1173 5.20243 14.8329 6.5943 13.1704C8.9218 13.3723 10.7093 12.9098 10.9124 12.8423C11.3824 12.6848 14.0418 12.3329 14.4718 8.68357ZM6.82368 12.1067C6.82368 12.1067 5.35055 13.9436 4.89243 14.4204C4.74243 14.5754 4.57805 14.5611 4.58055 14.2536C4.58055 14.0517 4.5918 11.7436 4.5918 11.7436C1.70868 10.9173 1.87868 7.80982 1.90993 6.18419C1.94118 4.55794 2.23868 3.22607 3.11618 2.32919C5.14055 0.431068 10.8512 0.855443 12.3062 2.22294C14.0849 3.79982 13.4518 8.25482 13.4556 8.40669C13.0899 11.4529 10.9349 11.6461 10.5387 11.7779C10.3693 11.8342 8.79743 12.2386 6.82368 12.1067Z" fill="#2D64F4"/>
<path d="M7.63848 2.68604C7.39785 2.68604 7.39785 3.06104 7.63848 3.06416C9.50535 3.07854 11.0429 4.37979 11.0597 6.76666C11.0597 7.01854 11.4285 7.01541 11.4254 6.76354H11.4247C11.4047 4.19166 9.72598 2.70041 7.63848 2.68604Z" fill="#2D64F4"/>
<path d="M10.0941 6.37065C10.0885 6.6194 10.4566 6.63127 10.4597 6.3794C10.4904 4.96127 9.61598 3.79315 7.97284 3.67002C7.73222 3.65252 7.70722 4.03065 7.94722 4.04815C9.37223 4.15627 10.1229 5.12877 10.0941 6.37065Z" fill="#2D64F4"/>
<path d="M9.70087 7.98406C9.39212 7.80531 9.07774 7.91656 8.94774 8.09218L8.67587 8.44406C8.53775 8.62281 8.27962 8.59906 8.27962 8.59906C6.39588 8.10093 5.89213 6.12968 5.89213 6.12968C5.89213 6.12968 5.869 5.86281 6.0415 5.71968L6.3815 5.43843C6.5515 5.30343 6.659 4.97843 6.48588 4.65906C6.02338 3.82343 5.71275 3.53531 5.55463 3.31406C5.38838 3.10593 5.13838 3.05906 4.87838 3.19968H4.87275C4.33213 3.51593 3.74026 4.10781 3.92963 4.71718C4.25275 5.35968 4.8465 7.40781 6.739 8.95531C7.62837 9.68718 9.03587 10.4372 9.63337 10.6103L9.63899 10.6191C10.2277 10.8153 10.8002 10.2003 11.1059 9.64343V9.63906C11.2415 9.36968 11.1965 9.11468 10.9984 8.94781C10.6471 8.60531 10.1171 8.22718 9.70087 7.98406Z" fill="#2D64F4"/>
<path d="M8.23035 5.06505C8.83098 5.10005 9.12224 5.4138 9.15349 6.05818C9.16474 6.31006 9.53037 6.29256 9.51911 6.04068C9.47911 5.19943 9.04036 4.73067 8.25035 4.68692C8.00972 4.67255 7.98722 5.05067 8.23035 5.06505Z" fill="#2D64F4"/>
</g>
<defs>
<clipPath id="clip0_192_14331">
<rect width="15" height="15" fill="white"/>
</clipPath>
</defs>
</svg>
