<svg width="15" height="15" viewBox="0 0 15 15" fill="none" xmlns="http://www.w3.org/2000/svg">
<g clip-path="url(#clip0_192_14346)">
<path d="M10.942 8.94137L10.9363 8.98825C9.56196 8.30325 9.41821 8.212 9.24071 8.47825C9.11759 8.66262 8.75884 9.08075 8.65071 9.2045C8.54134 9.32637 8.43259 9.33575 8.24696 9.25137C8.05946 9.15762 7.45759 8.96075 6.74509 8.32325C6.19009 7.82637 5.81759 7.217 5.70759 7.0295C5.52446 6.71325 5.90759 6.66825 6.25634 6.00825C6.31884 5.877 6.28696 5.77387 6.24071 5.68075C6.19384 5.587 5.82071 4.66825 5.66446 4.302C5.51446 3.937 5.36009 3.98325 5.24446 3.98325C4.88446 3.952 4.62134 3.957 4.38946 4.19825C3.38071 5.307 3.63509 6.45075 4.49821 7.667C6.19446 9.887 7.09821 10.2957 8.75071 10.8632C9.19696 11.0051 9.60384 10.9851 9.92571 10.9389C10.2845 10.882 11.0301 10.4882 11.1857 10.0476C11.3451 9.607 11.3451 9.24137 11.2982 9.157C11.252 9.07262 11.1295 9.02575 10.942 8.94137Z" fill="#2D64F4"/>
<path d="M12.825 2.15541C8.01937 -2.49022 0.06625 0.879157 0.063125 7.43291C0.063125 8.74291 0.40625 10.0204 1.06 11.1485L0 14.9998L3.95937 13.9673C8.9 16.636 14.9975 13.0923 15 7.43666C15 5.45166 14.225 3.58353 12.8156 2.17978L12.825 2.15541ZM13.7513 7.41603C13.7475 12.1867 8.51062 15.166 4.36875 12.731L4.14375 12.5973L1.8 13.2067L2.42812 10.9285L2.27875 10.6942C-0.29875 6.59103 2.6625 1.22853 7.545 1.22853C9.20375 1.22853 10.7606 1.87541 11.9331 3.04728C13.105 4.20916 13.7513 5.76603 13.7513 7.41603Z" fill="#2D64F4"/>
</g>
<defs>
<clipPath id="clip0_192_14346">
<rect width="15" height="15" fill="white"/>
</clipPath>
</defs>
</svg>
