<svg width="30" height="30" viewBox="0 0 30 30" fill="none" xmlns="http://www.w3.org/2000/svg">
<g clip-path="url(#clip0_192_5152)">
<path d="M29.945 7.11361C29.8418 6.72964 29.5899 6.4023 29.2452 6.20385C28.9003 6.00442 28.4902 5.95048 28.1055 6.05373C27.7213 6.15723 27.3939 6.40889 27.1955 6.75356L26.9455 7.18855C26.708 7.05209 26.4046 7.1324 26.2657 7.36869L24.9959 9.53312L24.5609 9.28316C24.4457 9.21652 24.3085 9.19846 24.1801 9.23312C24.0515 9.26803 23.9421 9.35248 23.876 9.46819C23.7405 9.70716 23.823 10.0108 24.061 10.148L24.496 10.398L20.2467 17.7617L19.1969 20.5664L18.6969 21.501C18.4043 22.0102 18.4355 22.6432 18.777 23.1209L17.6522 24.5005L17.3373 23.7109C17.1952 23.3589 16.8664 23.1177 16.4883 23.0882C16.11 23.0584 15.7475 23.2454 15.5525 23.5708L15.3726 23.8756L15.2027 21.876C15.1636 21.4029 14.7972 21.0226 14.3261 20.9655C13.8547 20.9086 13.4085 21.191 13.2579 21.6412L12.0282 25.3305C11.9422 25.5914 12.0828 25.8726 12.343 25.9605C12.3919 25.9832 12.4443 25.9969 12.498 26.0003C12.7129 26.001 12.9042 25.8641 12.9731 25.6605L14.1977 21.9712L14.3727 24.0006C14.4089 24.4337 14.7201 24.7937 15.1433 24.8918C15.5666 24.99 16.0045 24.8035 16.2274 24.4307L16.4124 24.1256L16.7224 24.9106C16.854 25.2414 17.1516 25.4774 17.5038 25.5299C17.856 25.5824 18.2095 25.4435 18.4321 25.1655L19.5969 23.6909C19.7258 23.7245 19.8586 23.7414 19.9919 23.7409C20.5277 23.7451 21.0252 23.4629 21.2966 23.0008L21.7965 22.166L23.7012 19.8514L27.9954 12.3976L28.4304 12.6476C28.5463 12.714 28.6308 12.8236 28.6652 12.9527C28.6999 13.0809 28.6818 13.2175 28.6154 13.3325L26.6158 16.797C26.5403 16.9108 26.5147 17.0504 26.545 17.1837C26.5752 17.3167 26.6585 17.4317 26.7756 17.5017C26.8909 17.5686 27.028 17.5867 27.1564 17.552C27.2851 17.5171 27.3944 17.4327 27.4606 17.3169L29.4602 13.8525C29.6597 13.5075 29.7136 13.0975 29.6101 12.7128C29.5066 12.3285 29.255 12.0012 28.9103 11.8028L28.4753 11.5528L29.7251 9.38812C29.8615 9.15061 29.7812 8.84744 29.5452 8.70831L29.7951 8.27332C29.9999 7.92304 30.0541 7.50465 29.945 7.11361ZM28.0603 7.25348C28.1265 7.13777 28.2363 7.05307 28.3655 7.01865C28.4939 6.98692 28.6296 7.00474 28.7453 7.06869C28.8612 7.13484 28.9457 7.24469 28.9803 7.37357C29.0121 7.50197 28.9943 7.63769 28.9303 7.75339L28.6803 8.18838L27.8104 7.68846L28.0603 7.25348ZM21.2466 21.2113L20.9966 21.0663L20.2567 20.6362L20.9666 18.7366L22.5413 19.6464L21.2466 21.2113ZM19.7468 22.6559C19.5357 22.5087 19.4707 22.2255 19.5969 22.001L19.8469 21.5662L20.7166 22.0661L20.4667 22.496C20.3966 22.6176 20.2789 22.704 20.142 22.7345C20.0051 22.7647 19.8618 22.7364 19.7468 22.6559ZM23.1112 18.8267L21.3815 17.8269L25.3809 10.8979L27.1105 11.8977L23.1112 18.8267ZM27.6105 11.0329L25.8808 10.033L26.8806 8.30335L28.6103 9.30318L27.6105 11.0329Z" fill="#C8ADC8"/>
<path d="M7.88828 22.4063L6.11881 24.1712L5.05894 23.1113C4.8639 22.9175 4.54901 22.9175 4.35398 23.1113C4.25927 23.2053 4.20605 23.3329 4.20605 23.4662C4.20605 23.5995 4.25927 23.7274 4.35398 23.8211L5.41385 24.881C5.60132 25.067 5.8547 25.1712 6.11881 25.171C6.38439 25.1725 6.63996 25.0682 6.82865 24.881L8.59324 23.1113C8.76313 22.9128 8.75166 22.6172 8.56712 22.4327C8.38234 22.2479 8.08674 22.2364 7.88828 22.4063Z" fill="#C8ADC8"/>
<path d="M2 23.7511C2 26.0981 3.90251 28.0004 6.24928 28.0004C8.59605 28.0004 10.4986 26.0981 10.4986 23.7511C10.4986 23.475 10.2747 23.2512 9.99864 23.2512C9.72256 23.2512 9.49872 23.475 9.49872 23.7511C9.49872 25.5457 8.04389 27.0005 6.24928 27.0005C4.45466 27.0005 2.99983 25.5457 2.99983 23.7511C2.99983 21.9565 4.45466 20.5016 6.24928 20.5016C6.95277 20.4997 7.63747 20.7279 8.1989 21.1517C8.41981 21.3174 8.73323 21.2725 8.89873 21.0516C9.06447 20.8307 9.0198 20.5175 8.79889 20.3518C7.51127 19.3861 5.78842 19.2309 4.34897 19.9505C2.90927 20.6703 2 22.1417 2 23.7511Z" fill="#C8ADC8"/>
<path d="M17.9967 4.00422C18.2728 4.00422 18.4967 3.78063 18.4967 3.50431C18.4967 3.22823 18.2728 3.00439 17.9967 3.00439H4.99894C4.72286 3.00439 4.49902 3.22823 4.49902 3.50431V5.50397C4.49902 5.78029 4.72286 6.00388 4.99894 6.00388H17.9967C18.2728 6.00388 18.4967 5.78029 18.4967 5.50397C18.4967 5.22789 18.2728 5.00405 17.9967 5.00405H5.49885V4.00422H17.9967Z" fill="#C8ADC8"/>
<path d="M6.49894 7.00391C6.22286 7.00391 5.99902 7.22774 5.99902 7.50382C5.99902 7.78013 6.22286 8.00373 6.49894 8.00373H16.4972C16.7733 8.00373 16.9971 7.78013 16.9971 7.50382C16.9971 7.22774 16.7733 7.00391 16.4972 7.00391H6.49894Z" fill="#C8ADC8"/>
<path d="M19.4971 10.5034H8.49894C8.22286 10.5034 7.99902 10.7273 7.99902 11.0033C7.99902 11.2796 8.22286 11.5032 8.49894 11.5032H19.4971C19.7731 11.5032 19.997 11.2796 19.997 11.0033C19.997 10.7273 19.7731 10.5034 19.4971 10.5034Z" fill="#C8ADC8"/>
<path d="M14.4981 14.0024C14.4981 13.7263 14.2743 13.5024 13.9982 13.5024H3.99991C3.72384 13.5024 3.5 13.7263 3.5 14.0024C3.5 14.2787 3.72384 14.5023 3.99991 14.5023H13.9982C14.2743 14.5023 14.4981 14.2787 14.4981 14.0024Z" fill="#C8ADC8"/>
<path d="M19.4964 13.5024H15.997C15.7209 13.5024 15.4971 13.7263 15.4971 14.0024C15.4971 14.2787 15.7209 14.5023 15.997 14.5023H19.4964C19.7725 14.5023 19.9963 14.2787 19.9963 14.0024C19.9963 13.7263 19.7725 13.5024 19.4964 13.5024Z" fill="#C8ADC8"/>
<path d="M8.99906 17.0023C9.27514 17.0023 9.49898 16.7787 9.49898 16.5024C9.49898 16.2263 9.27514 16.0024 8.99906 16.0024H3.99991C3.72384 16.0024 3.5 16.2263 3.5 16.5024C3.5 16.7787 3.72384 17.0023 3.99991 17.0023H8.99906Z" fill="#C8ADC8"/>
<path d="M10.998 17.0023H14.4974C14.7734 17.0023 14.9973 16.7787 14.9973 16.5024C14.9973 16.2263 14.7734 16.0024 14.4974 16.0024H10.998C10.7219 16.0024 10.498 16.2263 10.498 16.5024C10.498 16.7787 10.7219 17.0023 10.998 17.0023Z" fill="#C8ADC8"/>
<path d="M22.4962 23.001C22.2201 23.001 21.9963 23.2248 21.9963 23.5009V28.5C21.9963 28.7763 21.7724 28.9999 21.4963 28.9999H1.49974C1.22367 28.9999 0.99983 28.7763 0.99983 28.5V1.50463C0.99983 1.22855 1.22367 1.00471 1.49974 1.00471H21.4963C21.7724 1.00471 21.9963 1.22855 21.9963 1.50463V10.8932C21.9963 11.1692 22.2201 11.3931 22.4962 11.3931C22.7722 11.3931 22.9961 11.1692 22.9961 10.8932V1.50463C22.9961 0.676399 22.3246 0.00488281 21.4963 0.00488281H1.49974C0.671516 0.00488281 0 0.676399 0 1.50463V28.5C0 29.3285 0.671516 29.9998 1.49974 29.9998H21.4963C22.3246 29.9998 22.9961 29.3285 22.9961 28.5V23.5009C22.9961 23.2248 22.7722 23.001 22.4962 23.001Z" fill="#C8ADC8"/>
</g>
<defs>
<clipPath id="clip0_192_5152">
<rect width="30" height="30" fill="white"/>
</clipPath>
</defs>
</svg>
