<svg width="30" height="30" viewBox="0 0 30 30" fill="none" xmlns="http://www.w3.org/2000/svg">
<g clip-path="url(#clip0_192_5139)">
<path d="M27.0819 9.24265L26.7796 4.01053C26.7132 2.86023 25.7956 1.94267 24.6453 1.87622L15.4496 1.34499C14.9929 1.31839 14.5453 1.48902 14.2216 1.81259L2.57018 13.464C2.39855 13.6357 2.39855 13.9139 2.57018 14.0855C2.74181 14.2571 3.02008 14.2571 3.19165 14.0855L14.8431 2.43412C14.9896 2.28769 15.192 2.2104 15.3989 2.22247L24.5946 2.7537C25.2993 2.79443 25.8615 3.35654 25.9022 4.06122L26.1355 8.09962C25.5939 7.53381 24.976 7.02672 24.294 6.66125C23.9896 5.36921 22.813 4.42147 21.466 4.42147C19.8642 4.42147 18.5612 5.72453 18.5612 7.32626C18.5612 10.0802 22.0463 11.276 23.7452 9.12745C24.9119 10.0225 25.8327 11.5345 26.4117 12.8797L26.4334 13.2569C26.4454 13.4636 26.3682 13.6662 26.2218 13.8126C13.7677 26.2667 24.8658 15.1687 12.563 27.4715C12.1554 27.8793 11.492 27.8793 11.0843 27.4715L1.18426 17.5715C0.776606 17.1639 0.776606 16.5006 1.18426 16.0929L1.68778 15.5894C1.85941 15.4178 1.85941 15.1395 1.68778 14.9679C1.51615 14.7963 1.23788 14.7963 1.06631 14.9679L0.562788 15.4714C-0.187596 16.2218 -0.187596 17.4427 0.562788 18.1931L10.4628 28.0931C11.2149 28.8452 12.4322 28.8453 13.1844 28.0931L19.8222 21.4553C21.2355 23.8448 23.6901 26.1736 26.3496 25.461C27.9245 25.039 29.0981 23.6282 29.6543 21.4886C30.6446 17.6783 29.4212 12.4855 27.0819 9.24265ZM21.466 5.30047C22.1604 5.30047 22.7898 5.66143 23.1567 6.2134C21.8096 5.87307 20.4668 6.22172 19.4419 7.24153C19.4865 6.16365 20.3773 5.30047 21.466 5.30047ZM20.8449 9.25508C21.4275 8.42945 22.13 8.27722 22.9875 8.66407C22.4529 9.2716 21.6109 9.501 20.8449 9.25508ZM28.8036 21.2674C28.3304 23.0877 27.3781 24.2755 26.1221 24.612C23.8471 25.2217 21.6473 22.8875 20.4654 20.8121L20.9176 20.3599C21.365 21.1718 21.8696 21.8813 22.4218 22.4746C23.337 23.4577 24.6767 24.3624 25.9629 24.0179C26.9847 23.7442 27.7764 22.7346 28.1924 21.1751C28.2549 20.9406 28.1155 20.6998 27.8811 20.6372C27.6465 20.5747 27.4057 20.714 27.3432 20.9485C27.0164 22.1734 26.4305 22.9827 25.7355 23.1689C25.0005 23.3657 24.0022 22.8823 23.0652 21.8757C22.5122 21.2817 22.0089 20.5544 21.5666 19.7109C27.2111 14.0663 26.8734 14.4087 26.9442 14.3232C27.4077 15.8087 27.6787 17.459 27.6182 19.0138C27.6088 19.2563 27.7977 19.4606 28.0403 19.47C28.2826 19.4795 28.4871 19.2906 28.4965 19.048C28.5787 16.9379 28.0931 14.5998 27.2575 12.6239C27.2532 12.6126 27.2485 12.6014 27.2434 12.5906C26.5495 10.9608 25.3932 9.11122 23.8932 8.15827C23.8727 8.14286 23.8516 8.12979 23.8294 8.11842C22.3884 7.23403 21.0194 7.4325 20.0854 8.8084C19.9268 8.66038 19.792 8.48746 19.6877 8.29732C20.6428 7.01037 22.1095 6.58432 23.6909 7.3412C23.7051 7.34911 23.7198 7.3562 23.7349 7.36253C24.7389 7.85627 25.6124 8.7358 26.2805 9.63472C26.2911 9.65136 26.3028 9.66724 26.3156 9.68224C28.5429 12.7134 29.7329 17.6918 28.8036 21.2674Z" fill="white"/>
<path d="M14.2256 6.26433C13.9104 5.94903 13.4001 5.94897 13.0848 6.26433L3.08747 16.2616C2.77293 16.5762 2.77293 17.0879 3.08747 17.4025L11.2536 25.5686C11.568 25.8831 12.0798 25.8831 12.3944 25.5686L22.3918 15.5713C22.707 15.256 22.707 14.7457 22.3918 14.4305L17.1274 9.16608C16.9557 8.99445 16.6775 8.99445 16.5059 9.16608C16.3343 9.33771 16.3343 9.61598 16.5059 9.78755L21.7192 15.0009L11.8241 24.8961L3.76004 16.8321L13.6552 6.9369L14.9481 8.22977C15.1197 8.4014 15.398 8.4014 15.5695 8.22977C15.7412 8.05814 15.7412 7.77987 15.5695 7.6083L14.2256 6.26433Z" fill="white"/>
<path d="M17.0957 11.56C16.6387 11.1031 15.8953 11.1031 15.4383 11.56L15.1214 11.8769C14.0037 11.2562 12.5686 11.4378 11.6446 12.3617C10.5092 13.4972 10.5092 15.3447 11.6446 16.4801L12.1755 17.0111C12.283 17.1185 12.3422 17.2613 12.3422 17.4129C12.3422 17.7267 12.0875 17.9815 11.7736 17.9815C11.622 17.9815 11.4792 17.9223 11.3717 17.8148L10.8409 17.284C10.7052 17.1484 10.6474 16.9547 10.6862 16.766C10.8163 16.133 10.4071 15.5122 9.77425 15.3821C9.13971 15.2516 8.5207 15.6596 8.39032 16.294C8.24881 16.9824 8.36125 17.6946 8.69848 18.2998L8.38176 18.6165C7.92483 19.0734 7.92483 19.8169 8.38176 20.2738C8.8387 20.7308 9.58217 20.7308 10.0391 20.2738L10.3555 19.9574C11.4724 20.5792 12.9076 20.3975 13.8328 19.4721C14.9716 18.3334 14.9719 16.4926 13.8328 15.3537L13.3019 14.8228C13.0804 14.6013 13.0804 14.2405 13.3019 14.019C13.5235 13.7974 13.8841 13.7974 14.1057 14.019L14.6366 14.5499C14.7722 14.6855 14.83 14.8792 14.7913 15.0679C14.6611 15.7008 15.0702 16.3216 15.7034 16.4518C16.3363 16.5816 16.9571 16.1725 17.0871 15.5398C17.2286 14.8515 17.1162 14.1393 16.779 13.5341L17.0957 13.2174C17.5526 12.7604 17.5526 12.0169 17.0957 11.56ZM16.4742 12.5958L15.9068 13.1632C15.7524 13.3176 15.7348 13.562 15.8654 13.737C16.2118 14.2007 16.3433 14.7933 16.2262 15.3629C16.1937 15.521 16.0386 15.6232 15.8803 15.5909C15.722 15.5583 15.6197 15.4031 15.6522 15.2449C15.7507 14.7658 15.6034 14.2736 15.2581 13.9284L14.7273 13.3976C14.163 12.8332 13.2447 12.8332 12.6804 13.3976C12.1162 13.9618 12.1162 14.8801 12.6804 15.4443L13.2113 15.9753C14.0067 16.7705 14.0068 18.0552 13.2113 18.8507C12.5009 19.5612 11.3607 19.6443 10.559 19.0441C10.384 18.9131 10.1394 18.9306 9.98484 19.0852L9.41763 19.6524C9.23475 19.8353 8.91745 19.7071 8.91745 19.4452C8.91745 19.367 8.94792 19.2934 9.00323 19.238L9.57062 18.6706C9.72502 18.5162 9.74266 18.2719 9.61199 18.0969C9.26563 17.6331 9.13414 17.0406 9.25121 16.471C9.28004 16.3304 9.40368 16.2369 9.53752 16.2369C9.72444 16.2369 9.86231 16.4084 9.82522 16.589C9.72672 17.068 9.87403 17.5602 10.2193 17.9054L10.7502 18.4363C11.3161 19.0022 12.231 19.0023 12.7969 18.4363C13.3629 17.8703 13.363 16.9555 12.7969 16.3895L12.2661 15.8586C11.4733 15.0659 11.4733 13.776 12.2661 12.9832C12.9753 12.2739 14.1157 12.191 14.9188 12.7903C15.0937 12.9209 15.338 12.9032 15.4924 12.7488L16.0598 12.1814C16.1152 12.1261 16.1887 12.0956 16.267 12.0956C16.5278 12.0957 16.6576 12.4124 16.4742 12.5958Z" fill="white"/>
</g>
<defs>
<clipPath id="clip0_192_5139">
<rect width="30" height="30" fill="white"/>
</clipPath>
</defs>
</svg>
