<svg width="30" height="30" viewBox="0 0 30 30" fill="none" xmlns="http://www.w3.org/2000/svg">
<path d="M7.73438 7.5C7.8587 7.5 7.97792 7.45061 8.06583 7.36271C8.15374 7.2748 8.20312 7.15557 8.20312 7.03125V3.28125C8.20353 2.90841 8.35182 2.55097 8.61546 2.28733C8.87909 2.0237 9.23654 1.87541 9.60938 1.875H12.1875C12.3118 1.875 12.431 1.82561 12.519 1.73771C12.6069 1.6498 12.6562 1.53057 12.6562 1.40625C12.6562 1.28193 12.6069 1.1627 12.519 1.07479C12.431 0.986886 12.3118 0.9375 12.1875 0.9375H9.60938C8.988 0.938232 8.39228 1.1854 7.9529 1.62478C7.51352 2.06416 7.26636 2.65987 7.26562 3.28125V7.03125C7.26562 7.15557 7.31501 7.2748 7.40292 7.36271C7.49083 7.45061 7.61005 7.5 7.73438 7.5Z" fill="#C8ADC8"/>
<path d="M17.279 21.5627C17.279 21.4384 17.2296 21.3191 17.1417 21.2312C17.0538 21.1433 16.9345 21.0939 16.8102 21.0939H10.0781V20.1665C10.0781 20.0422 10.0287 19.923 9.94083 19.835C9.85292 19.7471 9.7337 19.6978 9.60937 19.6978C9.48505 19.6978 9.36583 19.7471 9.27792 19.835C9.19001 19.923 9.14062 20.0422 9.14062 20.1665V21.5627C9.14062 21.687 9.19001 21.8062 9.27792 21.8941C9.36583 21.982 9.48505 22.0314 9.60937 22.0314H16.8102C16.9345 22.0314 17.0538 21.982 17.1417 21.8941C17.2296 21.8062 17.279 21.687 17.279 21.5627Z" fill="#C8ADC8"/>
<path d="M26.3805 14.702L23.2031 11.5246V3.28125C23.2024 2.65987 22.9552 2.06416 22.5158 1.62478C22.0765 1.1854 21.4808 0.938232 20.8594 0.9375H14.5312C14.4069 0.9375 14.2877 0.986886 14.1998 1.07479C14.1119 1.1627 14.0625 1.28193 14.0625 1.40625C14.0625 1.53057 14.1119 1.6498 14.1998 1.73771C14.2877 1.82561 14.4069 1.875 14.5312 1.875H20.8594C21.2322 1.87541 21.5897 2.0237 21.8533 2.28733C22.1169 2.55097 22.2652 2.90841 22.2656 3.28125V16.4062C22.2656 16.5306 22.315 16.6498 22.4029 16.7377C22.4908 16.8256 22.6101 16.875 22.7344 16.875C22.8587 16.875 22.9779 16.8256 23.0658 16.7377C23.1537 16.6498 23.2031 16.5306 23.2031 16.4062V12.8504L25.7176 15.3648C26.1106 15.7557 26.4221 16.2206 26.6342 16.7326C26.8462 17.2446 26.9546 17.7936 26.9531 18.3479V28.125H17.5781V24.4388C17.5789 23.8005 17.8328 23.1886 18.2841 22.7372C18.7355 22.2859 19.3474 22.032 19.9857 22.0312C20.0784 22.0312 20.169 22.0037 20.2461 21.9522C20.3232 21.9007 20.3833 21.8275 20.4187 21.7419C20.4542 21.6562 20.4635 21.562 20.4454 21.4711C20.4273 21.3802 20.3827 21.2967 20.3172 21.2311L16.3728 17.287C16.0651 16.9793 15.8923 16.562 15.8923 16.1268C15.8923 15.6917 16.0651 15.2744 16.3728 14.9667C16.6805 14.659 17.0978 14.4861 17.533 14.4861C17.9681 14.4861 18.3854 14.659 18.6931 14.9667L24.0416 20.3151C24.1299 20.4008 24.2484 20.4483 24.3715 20.4474C24.4946 20.4464 24.6124 20.3971 24.6994 20.3101C24.7864 20.223 24.8357 20.1053 24.8367 19.9822C24.8376 19.8591 24.7901 19.7406 24.7044 19.6523L21.3281 16.2759V3.28125C21.3281 3.15693 21.2787 3.0377 21.1908 2.94979C21.1029 2.86189 20.9837 2.8125 20.8594 2.8125H18.5156C18.3913 2.8125 18.2721 2.86189 18.1842 2.94979C18.0963 3.0377 18.0469 3.15693 18.0469 3.28125C18.0467 3.40552 17.9973 3.52466 17.9094 3.61253C17.8215 3.7004 17.7024 3.74984 17.5781 3.75H12.8906C12.7664 3.74984 12.6472 3.7004 12.5593 3.61253C12.4715 3.52466 12.422 3.40552 12.4219 3.28125C12.4219 3.15693 12.3725 3.0377 12.2846 2.94979C12.1967 2.86189 12.0774 2.8125 11.9531 2.8125H9.60938C9.48505 2.8125 9.36583 2.86189 9.27792 2.94979C9.19001 3.0377 9.14062 3.15693 9.14062 3.28125V7.96875H3.51562C3.14279 7.96916 2.78534 8.11745 2.52171 8.38108C2.25807 8.64472 2.10978 9.00216 2.10938 9.375V17.8125C2.10978 18.1853 2.25807 18.5428 2.52171 18.8064C2.78534 19.0701 3.14279 19.2183 3.51562 19.2188H7.26562V23.4375C7.26636 24.0589 7.51352 24.6546 7.9529 25.094C8.39228 25.5334 8.988 25.7805 9.60938 25.7812H16.6406V28.5938C16.6406 28.7181 16.69 28.8373 16.7779 28.9252C16.8658 29.0131 16.9851 29.0625 17.1094 29.0625H27.4219C27.5462 29.0625 27.6654 29.0131 27.7533 28.9252C27.8412 28.8373 27.8906 28.7181 27.8906 28.5938V18.3479C27.8925 17.6705 27.76 16.9995 27.5007 16.3737C27.2415 15.7479 26.8607 15.1797 26.3805 14.702V14.702ZM3.51562 8.90625H18.5156V9.84375H3.04688V9.375C3.04704 9.25073 3.09647 9.13159 3.18435 9.04372C3.27222 8.95585 3.39135 8.90641 3.51562 8.90625ZM15.2344 24.8438H9.60938C9.23654 24.8433 8.87909 24.6951 8.61546 24.4314C8.35182 24.1678 8.20353 23.8103 8.20312 23.4375V19.2188H15.2543C15.3786 19.2188 15.4978 19.1694 15.5858 19.0815C15.6737 18.9935 15.723 18.8743 15.723 18.75C15.723 18.6257 15.6737 18.5065 15.5858 18.4185C15.4978 18.3306 15.3786 18.2812 15.2543 18.2812H3.51562C3.39135 18.2811 3.27222 18.2317 3.18435 18.1438C3.09647 18.0559 3.04704 17.9368 3.04688 17.8125V13.5938H15.723C15.8474 13.5938 15.9666 13.5444 16.0545 13.4565C16.1424 13.3685 16.1918 13.2493 16.1918 13.125C16.1918 13.0007 16.1424 12.8815 16.0545 12.7935C15.9666 12.7056 15.8474 12.6562 15.723 12.6562H3.04688V10.7812H18.5156V13.125C18.5156 13.2493 18.565 13.3685 18.6529 13.4565C18.7408 13.5444 18.8601 13.5938 18.9844 13.5938C19.1087 13.5938 19.2279 13.5444 19.3158 13.4565C19.4037 13.3685 19.4531 13.2493 19.4531 13.125V7.03125C19.4531 6.90693 19.4037 6.7877 19.3158 6.69979C19.2279 6.61189 19.1087 6.5625 18.9844 6.5625C18.8601 6.5625 18.7408 6.61189 18.6529 6.69979C18.565 6.7877 18.5156 6.90693 18.5156 7.03125V7.96875H10.0781V3.75H11.5647C11.662 4.024 11.8416 4.26119 12.079 4.42904C12.3164 4.59689 12.5999 4.68717 12.8906 4.6875H17.5781C17.8689 4.68717 18.1524 4.59689 18.3898 4.42904C18.6272 4.26119 18.8068 4.024 18.904 3.75H20.3906V15.3383L19.3561 14.3037C18.8726 13.8202 18.2168 13.5486 17.533 13.5486C16.8493 13.5486 16.1935 13.8202 15.71 14.3037C15.2265 14.7872 14.9548 15.443 14.9548 16.1268C14.9548 16.8106 15.2265 17.4663 15.71 17.9498L19.0018 21.2414C18.3186 21.4527 17.7209 21.877 17.296 22.4523C16.8712 23.0276 16.6416 23.7237 16.6406 24.4388V24.8438H15.2344Z" fill="#C8ADC8"/>
<path d="M6.79688 14.5312H4.45312C4.3288 14.5312 4.20958 14.5806 4.12167 14.6685C4.03376 14.7565 3.98438 14.8757 3.98438 15V16.875C3.98438 16.9993 4.03376 17.1185 4.12167 17.2065C4.20958 17.2944 4.3288 17.3438 4.45312 17.3438H6.79688C6.9212 17.3438 7.04042 17.2944 7.12833 17.2065C7.21624 17.1185 7.26562 16.9993 7.26562 16.875V15C7.26562 14.8757 7.21624 14.7565 7.12833 14.6685C7.04042 14.5806 6.9212 14.5312 6.79688 14.5312ZM6.32812 16.4062H4.92188V15.4688H6.32812V16.4062Z" fill="#C8ADC8"/>
<path d="M16.6406 23.4375C16.6406 23.1594 16.5582 22.8875 16.4036 22.6562C16.2491 22.425 16.0295 22.2447 15.7725 22.1383C15.5156 22.0319 15.2328 22.004 14.96 22.0583C14.6872 22.1125 14.4367 22.2465 14.24 22.4431C14.0433 22.6398 13.9094 22.8904 13.8551 23.1632C13.8009 23.4359 13.8287 23.7187 13.9352 23.9757C14.0416 24.2326 14.2219 24.4522 14.4531 24.6068C14.6844 24.7613 14.9563 24.8438 15.2344 24.8438C15.6072 24.8433 15.9647 24.6951 16.2283 24.4314C16.4919 24.1678 16.6402 23.8103 16.6406 23.4375V23.4375ZM15.2344 23.9063C15.1417 23.9063 15.051 23.8788 14.974 23.8273C14.8969 23.7757 14.8368 23.7025 14.8013 23.6169C14.7658 23.5312 14.7565 23.437 14.7746 23.3461C14.7927 23.2551 14.8374 23.1716 14.9029 23.106C14.9685 23.0405 15.052 22.9958 15.1429 22.9778C15.2339 22.9597 15.3281 22.969 15.4138 23.0044C15.4994 23.0399 15.5726 23.1 15.6241 23.1771C15.6756 23.2542 15.7031 23.3448 15.7031 23.4375C15.703 23.5618 15.6535 23.6809 15.5657 23.7688C15.4778 23.8567 15.3587 23.9061 15.2344 23.9063V23.9063Z" fill="#C8ADC8"/>
</svg>
