<svg width="30" height="30" viewBox="0 0 30 30" fill="none" xmlns="http://www.w3.org/2000/svg">
<path d="M22.5 5.625H19.6875C19.5632 5.625 19.444 5.57561 19.356 5.48771C19.2681 5.3998 19.2188 5.28057 19.2188 5.15625C19.2188 5.03193 19.2681 4.9127 19.356 4.82479C19.444 4.73689 19.5632 4.6875 19.6875 4.6875H22.5C22.6243 4.6875 22.7435 4.73689 22.8315 4.82479C22.9194 4.9127 22.9688 5.03193 22.9688 5.15625C22.9688 5.28057 22.9194 5.3998 22.8315 5.48771C22.7435 5.57561 22.6243 5.625 22.5 5.625Z" fill="#C8ADC8"/>
<path d="M27.1875 15.0001C27.5605 15.0001 27.9181 14.852 28.1819 14.5882C28.4456 14.3245 28.5938 13.9668 28.5938 13.5939V5.15637C28.5938 4.87981 28.7062 5.07668 25.1766 1.54231C24.9797 1.34543 25.35 1.40637 18.75 1.40637C18.377 1.40637 18.0194 1.55453 17.7556 1.81825C17.4919 2.08197 17.3438 2.43966 17.3438 2.81262V4.68762H4.95469C4.36026 4.71559 3.80112 4.97791 3.39964 5.41716C2.99816 5.85641 2.78705 6.43683 2.8125 7.03137C2.8125 23.1095 2.62969 22.5376 3.25313 23.4376H1.875C1.75068 23.4376 1.63145 23.487 1.54354 23.5749C1.45564 23.6628 1.40625 23.782 1.40625 23.9064V25.3126C1.40625 26.1829 1.75195 27.0175 2.36731 27.6328C2.98266 28.2482 3.81726 28.5939 4.6875 28.5939H25.3125C26.1827 28.5939 27.0173 28.2482 27.6327 27.6328C28.248 27.0175 28.5938 26.1829 28.5938 25.3126V23.9064C28.5938 23.782 28.5444 23.6628 28.4565 23.5749C28.3685 23.487 28.2493 23.4376 28.125 23.4376H26.7469C27.3328 22.5892 27.1875 22.6501 27.1875 15.0001ZM18.2812 2.81262C18.2812 2.6883 18.3306 2.56907 18.4185 2.48116C18.5065 2.39326 18.6257 2.34387 18.75 2.34387H24.6516L27.6562 5.34856V13.5939C27.6562 13.7182 27.6069 13.8374 27.519 13.9253C27.431 14.0132 27.3118 14.0626 27.1875 14.0626H18.75C18.6257 14.0626 18.5065 14.0132 18.4185 13.9253C18.3306 13.8374 18.2812 13.7182 18.2812 13.5939V2.81262ZM27.6562 25.3126C27.6562 25.9342 27.4093 26.5304 26.9698 26.9699C26.5302 27.4094 25.9341 27.6564 25.3125 27.6564H4.6875C4.0659 27.6564 3.46976 27.4094 3.03022 26.9699C2.59068 26.5304 2.34375 25.9342 2.34375 25.3126V24.3751H11.7188V24.8439C11.7188 25.2168 11.8669 25.5745 12.1306 25.8382C12.3944 26.102 12.752 26.2501 13.125 26.2501H16.875C17.248 26.2501 17.6056 26.102 17.8694 25.8382C18.1331 25.5745 18.2812 25.2168 18.2812 24.8439V24.3751H27.6562V25.3126ZM17.3438 24.3751V24.8439C17.3438 24.9682 17.2944 25.0874 17.2065 25.1753C17.1185 25.2632 16.9993 25.3126 16.875 25.3126H13.125C13.0007 25.3126 12.8815 25.2632 12.7935 25.1753C12.7056 25.0874 12.6562 24.9682 12.6562 24.8439V24.3751H17.3438ZM4.95469 23.4376C4.60925 23.4089 4.28905 23.2451 4.06354 22.9819C3.83803 22.7187 3.72537 22.3771 3.75 22.0314V7.03137C3.72537 6.68561 3.83803 6.34408 4.06354 6.08083C4.28905 5.81759 4.60925 5.65385 4.95469 5.62512H17.3438V6.56262H12.1875C12.0632 6.56262 11.944 6.61201 11.856 6.69991C11.7681 6.78782 11.7188 6.90705 11.7188 7.03137C11.7188 7.15569 11.7681 7.27492 11.856 7.36283C11.944 7.45073 12.0632 7.50012 12.1875 7.50012H17.3438V13.5939C17.3438 13.9668 17.4919 14.3245 17.7556 14.5882C18.0194 14.852 18.377 15.0001 18.75 15.0001H24.375V21.5626H16.4062V19.6876C16.4058 18.7534 16.1263 17.8406 15.6034 17.0663C15.0806 16.2921 14.3383 15.6917 13.4719 15.3423C14.6859 14.4048 14.5312 13.1767 14.5312 12.1407C14.5312 11.3948 14.2349 10.6795 13.7075 10.152C13.18 9.62456 12.4647 9.32824 11.7188 9.32824C10.9728 9.32824 10.2575 9.62456 9.73001 10.152C9.20257 10.6795 8.90625 11.3948 8.90625 12.1407C8.90625 13.2657 8.76563 14.4001 9.96563 15.3423C9.09918 15.6917 8.3569 16.2921 7.83406 17.0663C7.31121 17.8406 7.03165 18.7534 7.03125 19.6876V21.5626H5.625V7.50012H7.96875C8.09307 7.50012 8.2123 7.45073 8.30021 7.36283C8.38811 7.27492 8.4375 7.15569 8.4375 7.03137C8.4375 6.90705 8.38811 6.78782 8.30021 6.69991C8.2123 6.61201 8.09307 6.56262 7.96875 6.56262H5.15625C5.03193 6.56262 4.9127 6.61201 4.82479 6.69991C4.73689 6.78782 4.6875 6.90705 4.6875 7.03137V22.0314C4.6875 22.1557 4.73689 22.2749 4.82479 22.3628C4.9127 22.4507 5.03193 22.5001 5.15625 22.5001H24.8438C24.9681 22.5001 25.0873 22.4507 25.1752 22.3628C25.2631 22.2749 25.3125 22.1557 25.3125 22.0314V15.0001H26.25V22.0314C26.2746 22.3771 26.162 22.7187 25.9365 22.9819C25.7109 23.2451 25.3908 23.4089 25.0453 23.4376H4.95469ZM11.6719 15.0001C11.1874 14.9989 10.7231 14.8059 10.3806 14.4633C10.038 14.1207 9.84499 13.6565 9.84375 13.172V12.1407C9.84375 11.6435 10.0413 11.1665 10.3929 10.8149C10.7446 10.4633 11.2215 10.2657 11.7188 10.2657C12.216 10.2657 12.6929 10.4633 13.0446 10.8149C13.3962 11.1665 13.5938 11.6435 13.5938 12.1407V13.172C13.5934 13.42 13.5428 13.6653 13.4448 13.8931C13.3469 14.121 13.2038 14.3265 13.0241 14.4975C12.8445 14.6684 12.632 14.801 12.3995 14.8874C12.1671 14.9738 11.9196 15.0122 11.6719 15.0001V15.0001ZM11.7188 15.9376C12.7133 15.9376 13.6671 16.3327 14.3704 17.036C15.0737 17.7392 15.4688 18.6931 15.4688 19.6876V21.5626H7.96875V19.6876C7.96875 18.6931 8.36384 17.7392 9.0671 17.036C9.77036 16.3327 10.7242 15.9376 11.7188 15.9376V15.9376Z" fill="#C8ADC8"/>
<path d="M9.84375 7.5H10.3125C10.4368 7.5 10.556 7.45061 10.644 7.36271C10.7319 7.2748 10.7812 7.15557 10.7812 7.03125C10.7812 6.90693 10.7319 6.7877 10.644 6.69979C10.556 6.61189 10.4368 6.5625 10.3125 6.5625H9.84375C9.71943 6.5625 9.6002 6.61189 9.51229 6.69979C9.42439 6.7877 9.375 6.90693 9.375 7.03125C9.375 7.15557 9.42439 7.2748 9.51229 7.36271C9.6002 7.45061 9.71943 7.5 9.84375 7.5Z" fill="#C8ADC8"/>
<path d="M19.6875 7.96875H26.25C26.3743 7.96875 26.4935 7.91936 26.5815 7.83146C26.6694 7.74355 26.7188 7.62432 26.7188 7.5C26.7188 7.37568 26.6694 7.25645 26.5815 7.16854C26.4935 7.08064 26.3743 7.03125 26.25 7.03125H19.6875C19.5632 7.03125 19.444 7.08064 19.356 7.16854C19.2681 7.25645 19.2188 7.37568 19.2188 7.5C19.2188 7.62432 19.2681 7.74355 19.356 7.83146C19.444 7.91936 19.5632 7.96875 19.6875 7.96875Z" fill="#C8ADC8"/>
<path d="M19.6875 10.3125H26.25C26.3743 10.3125 26.4935 10.2631 26.5815 10.1752C26.6694 10.0873 26.7188 9.96807 26.7188 9.84375C26.7188 9.71943 26.6694 9.6002 26.5815 9.51229C26.4935 9.42439 26.3743 9.375 26.25 9.375H19.6875C19.5632 9.375 19.444 9.42439 19.356 9.51229C19.2681 9.6002 19.2188 9.71943 19.2188 9.84375C19.2188 9.96807 19.2681 10.0873 19.356 10.1752C19.444 10.2631 19.5632 10.3125 19.6875 10.3125Z" fill="#C8ADC8"/>
<path d="M19.6875 12.6562H26.25C26.3743 12.6562 26.4935 12.6069 26.5815 12.519C26.6694 12.431 26.7188 12.3118 26.7188 12.1875C26.7188 12.0632 26.6694 11.944 26.5815 11.856C26.4935 11.7681 26.3743 11.7188 26.25 11.7188H19.6875C19.5632 11.7188 19.444 11.7681 19.356 11.856C19.2681 11.944 19.2188 12.0632 19.2188 12.1875C19.2188 12.3118 19.2681 12.431 19.356 12.519C19.444 12.6069 19.5632 12.6562 19.6875 12.6562Z" fill="#C8ADC8"/>
<path d="M28.1253 5.62503H25.7816C25.4086 5.62503 25.0509 5.47687 24.7872 5.21314C24.5235 4.94942 24.3753 4.59174 24.3753 4.21878C24.3753 1.74846 24.2816 1.59846 24.6659 1.44378C25.0503 1.28909 24.9144 1.2844 28.4581 4.82346C28.5242 4.88903 28.5693 4.97279 28.5876 5.06408C28.606 5.15537 28.5967 5.25004 28.561 5.33603C28.5253 5.42202 28.4648 5.49543 28.3872 5.5469C28.3096 5.59837 28.2184 5.62557 28.1253 5.62503V5.62503ZM25.3128 3.00471V4.21878C25.3128 4.3431 25.3622 4.46232 25.4501 4.55023C25.538 4.63814 25.6572 4.68753 25.7816 4.68753H26.9956L25.3128 3.00471Z" fill="#C8ADC8"/>
</svg>
