<svg width="30" height="30" viewBox="0 0 30 30" fill="none" xmlns="http://www.w3.org/2000/svg">
<path d="M29.9994 13.1595C29.9995 13.0398 29.9637 12.919 29.8879 12.8149C29.8616 12.7788 29.8318 12.747 29.7996 12.7188C29.7997 12.7188 29.7998 12.7187 29.7999 12.7186L27.7778 10.9489C28.2135 10.598 28.493 10.0607 28.493 9.45908V8.49756C28.493 5.91287 26.3902 3.81006 23.8055 3.81006C21.2208 3.81006 19.118 5.91287 19.118 8.49756C19.118 11.0822 21.2208 13.1851 23.8055 13.1851C24.1291 13.1851 24.3914 12.9227 24.3914 12.5991C24.3914 12.2755 24.1291 12.0132 23.8055 12.0132C21.867 12.0132 20.2898 10.4361 20.2898 8.49756C20.2898 6.55904 21.867 4.98193 23.8055 4.98193C25.744 4.98193 27.3211 6.55904 27.3211 8.49756V9.45908C27.3211 9.86748 26.9889 10.1997 26.5804 10.1997C26.172 10.1997 25.8398 9.86748 25.8398 9.45908V8.64943V6.96486C25.8398 6.80373 25.7735 6.64975 25.6564 6.53906C25.1538 6.06393 24.4965 5.80225 23.8055 5.80225C22.3193 5.80225 21.1102 7.01139 21.1102 8.49756C21.1102 9.98373 22.3193 11.1929 23.8055 11.1929C24.3083 11.1929 24.7931 11.0537 25.2137 10.795C25.5499 11.139 26.0144 11.3566 26.529 11.3703C26.5605 11.4253 26.6009 11.4762 26.6512 11.5203L28.4761 13.1173L23.7891 16.5272V14.9996C23.7891 14.676 23.5267 14.4137 23.2031 14.4137C22.8795 14.4137 22.6172 14.676 22.6172 14.9996V17.3797L18.2429 20.562L15.3447 18.4536C15.1392 18.304 14.8608 18.304 14.6553 18.4536L11.7571 20.562L1.54934 13.1358L4.8835 10.2179C5.12701 10.0048 5.15162 9.63457 4.93852 9.39106C4.72535 9.14754 4.35521 9.12293 4.1117 9.33604L0.216094 12.7051C0.215859 12.7054 0.215625 12.7055 0.215391 12.7058C0.0839648 12.8132 0 12.9765 0 13.1595V29.4137C0 29.7373 0.262324 29.9996 0.585938 29.9996H29.4141C29.7377 29.9996 30 29.7373 30 29.4137V13.1595C29.9998 13.1595 29.9996 13.1595 29.9994 13.1595ZM24.668 8.64949V9.45914V9.75299C24.4155 9.92707 24.1165 10.021 23.8055 10.021C22.9655 10.021 22.2821 9.33756 22.2821 8.49756C22.2821 7.65756 22.9655 6.97412 23.8055 6.97412C24.1165 6.97412 24.4155 7.06805 24.668 7.24213V8.64949ZM1.17188 14.3104L10.7611 21.2866L1.17188 28.2628V14.3104ZM2.38734 28.8277L15 19.6519L27.6127 28.8277H2.38734ZM28.8281 28.2628L19.2389 21.2866L28.8281 14.3104V28.2628Z" fill="#C8ADC8"/>
<path d="M19.7664 3.93966L15.3837 0.142784C15.161 -0.0501655 14.8348 -0.0447748 14.6181 0.142081C14.618 0.141905 14.6178 0.141788 14.6177 0.141612L12.5083 1.95802C12.2631 2.16919 12.2355 2.53915 12.4467 2.78437C12.5626 2.91896 12.7262 2.98798 12.8909 2.98798C13.0263 2.98798 13.1624 2.94134 13.273 2.84607L14.9989 1.35983L17.8273 3.81011H6.79687C6.47326 3.81011 6.21094 4.07243 6.21094 4.39605V12.8317C6.21094 13.1553 6.47326 13.4177 6.79687 13.4177C7.12049 13.4177 7.38281 13.1553 7.38281 12.8317V4.98204H19.3827C19.3808 4.97718 19.3793 4.97296 19.3775 4.96821C19.3791 4.96821 19.3808 4.96845 19.3824 4.96845C19.5465 4.96845 19.7097 4.89989 19.8256 4.76618C20.0375 4.52161 20.011 4.15153 19.7664 3.93966Z" fill="#C8ADC8"/>
<path d="M15.0816 9.72607H9.22363C8.90002 9.72607 8.6377 9.9884 8.6377 10.312C8.6377 10.6356 8.90002 10.8979 9.22363 10.8979H15.0816C15.4052 10.8979 15.6675 10.6356 15.6675 10.312C15.6675 9.9884 15.4052 9.72607 15.0816 9.72607Z" fill="#C8ADC8"/>
<path d="M15 6.79688H9.22363C8.90002 6.79688 8.6377 7.0592 8.6377 7.38281C8.6377 7.70642 8.90002 7.96874 9.22363 7.96874H15C15.3236 7.96874 15.5859 7.70642 15.5859 7.38281C15.5859 7.0592 15.3236 6.79688 15 6.79688Z" fill="#C8ADC8"/>
<path d="M7.21113 14.7806C7.10215 14.6716 6.95098 14.6089 6.79688 14.6089C6.64277 14.6089 6.4916 14.6716 6.38262 14.7806C6.27363 14.8896 6.21094 15.0407 6.21094 15.1948C6.21094 15.3495 6.27363 15.5001 6.38262 15.6091C6.4916 15.7187 6.64277 15.7808 6.79688 15.7808C6.95098 15.7808 7.10215 15.7187 7.21113 15.6091C7.32012 15.5001 7.38281 15.3495 7.38281 15.1948C7.38281 15.0407 7.32012 14.8896 7.21113 14.7806Z" fill="#C8ADC8"/>
<path d="M18.9603 12.6147H17.8125C17.4889 12.6147 17.2266 12.8771 17.2266 13.2007C17.2266 13.5243 17.4889 13.7866 17.8125 13.7866H18.9603C19.2839 13.7866 19.5462 13.5243 19.5462 13.2007C19.5462 12.8771 19.2839 12.6147 18.9603 12.6147Z" fill="#C8ADC8"/>
<path d="M15.2232 12.6147H15.2168C14.8932 12.6147 14.6309 12.8771 14.6309 13.2007C14.6309 13.5243 14.8932 13.7866 15.2168 13.7866H15.2232C15.5468 13.7866 15.8092 13.5243 15.8092 13.2007C15.8092 12.8771 15.5469 12.6147 15.2232 12.6147Z" fill="#C8ADC8"/>
<path d="M12.4219 12.6147H9.2207C8.89709 12.6147 8.63477 12.8771 8.63477 13.2007C8.63477 13.5243 8.89709 13.7866 9.2207 13.7866H12.4219C12.7455 13.7866 13.0078 13.5243 13.0078 13.2007C13.0078 12.8771 12.7455 12.6147 12.4219 12.6147Z" fill="#C8ADC8"/>
</svg>
