<svg width="32" height="32" viewBox="0 0 32 32" fill="none" xmlns="http://www.w3.org/2000/svg">
<path d="M19.2812 32H3.34375C2.56831 32 1.9375 31.3691 1.9375 30.5938V7.1375C1.9375 6.36212 2.56831 5.73125 3.34375 5.73125H6.03813C6.297 5.73125 6.50688 5.94106 6.50688 6.2C6.50688 6.45894 6.297 6.66875 6.03813 6.66875H3.34375C3.08525 6.66875 2.875 6.879 2.875 7.1375V30.5938C2.875 30.8522 3.08525 31.0625 3.34375 31.0625H19.2812C19.5397 31.0625 19.75 30.8522 19.75 30.5938V19.6875H8.96875C8.19331 19.6875 7.5625 19.0566 7.5625 18.2812V1.40625C7.5625 0.630875 8.19331 0 8.96875 0H23.0312C23.8067 0 24.4375 0.630875 24.4375 1.40625V6.09375C24.4375 6.35269 24.2276 6.5625 23.9688 6.5625C23.7099 6.5625 23.5 6.35269 23.5 6.09375V1.40625C23.5 1.14775 23.2897 0.9375 23.0312 0.9375H8.96875C8.71025 0.9375 8.5 1.14775 8.5 1.40625V18.2812C8.5 18.5397 8.71025 18.75 8.96875 18.75H23.0312C23.2897 18.75 23.5 18.5397 23.5 18.2812V7.96875C23.5 7.70981 23.7099 7.5 23.9688 7.5H26.7812C27.0401 7.5 27.25 7.70981 27.25 7.96875C27.25 8.22769 27.0401 8.4375 26.7812 8.4375H24.4375V10.3125H26.7812C27.0401 10.3125 27.25 10.5223 27.25 10.7812C27.25 11.0402 27.0401 11.25 26.7812 11.25H24.4375V13.125H26.7812C27.0401 13.125 27.25 13.3348 27.25 13.5938C27.25 13.8527 27.0401 14.0625 26.7812 14.0625H24.4375V15.9375H26.7812C27.0401 15.9375 27.25 16.1473 27.25 16.4062C27.25 16.6652 27.0401 16.875 26.7812 16.875H24.4375V18.2812C24.4375 18.4455 24.4092 18.6033 24.3572 18.75H26.7812C27.0401 18.75 27.25 18.9598 27.25 19.2188C27.25 19.4777 27.0401 19.6875 26.7812 19.6875H20.6875V21.5625H26.7812C27.0401 21.5625 27.25 21.7723 27.25 22.0312C27.25 22.2902 27.0401 22.5 26.7812 22.5H20.6875V25.4375H28.6562C28.9147 25.4375 29.125 25.2272 29.125 24.9688V4.325C29.125 4.0665 28.9147 3.85625 28.6562 3.85625H25.8438C25.5849 3.85625 25.375 3.64644 25.375 3.3875C25.375 3.12856 25.5849 2.91875 25.8438 2.91875H28.6562C29.4317 2.91875 30.0625 3.54962 30.0625 4.325V24.9688C30.0625 25.7441 29.4317 26.375 28.6562 26.375H20.6875V29.1875H25.8438C26.1022 29.1875 26.3125 28.9772 26.3125 28.7188V27.7812C26.3125 27.5223 26.5224 27.3125 26.7812 27.3125C27.0401 27.3125 27.25 27.5223 27.25 27.7812V28.7188C27.25 29.4941 26.6192 30.125 25.8438 30.125H20.6875V30.5938C20.6875 31.3691 20.0567 32 19.2812 32ZM22.0938 17.8125H9.90625C9.64738 17.8125 9.4375 17.6027 9.4375 17.3438V15.7154C9.4375 13.3067 11.03 12.7556 12.1928 12.3531C13.1525 12.021 13.6974 11.7972 13.7935 11.0754C12.759 10.3687 12.0787 9.18006 12.0787 7.83537V5.9025C12.0787 3.74031 13.8378 1.98125 16 1.98125C18.1622 1.98125 19.9213 3.74038 19.9213 5.9025V7.83537C19.9213 9.18006 19.2411 10.3687 18.2065 11.0754C18.3026 11.7973 18.8475 12.021 19.8072 12.3531C20.97 12.7556 22.5625 13.3067 22.5625 15.7154V17.3438C22.5625 17.6027 22.3526 17.8125 22.0938 17.8125ZM10.375 16.875H21.625V15.7154C21.625 13.9743 20.6405 13.6336 19.5006 13.2391C18.6587 12.9478 17.6438 12.5964 17.3422 11.52C16.9233 11.6731 16.4712 11.7566 16 11.7566C15.5288 11.7566 15.0767 11.6731 14.6578 11.52C14.3562 12.5964 13.3413 12.9478 12.4994 13.2391C11.3595 13.6336 10.375 13.9743 10.375 15.7154V16.875ZM16 2.91875C14.3547 2.91875 13.0162 4.25725 13.0162 5.9025V7.83537C13.0162 9.48063 14.3547 10.8191 16 10.8191C17.6453 10.8191 18.9838 9.48063 18.9838 7.83537V5.9025C18.9838 4.25725 17.6453 2.91875 16 2.91875Z" fill="white"/>
</svg>
