<svg width="20" height="14" viewBox="0 0 20 14" fill="none" xmlns="http://www.w3.org/2000/svg">
<path d="M17.6163 0.333988H2.38301C2.17934 0.333549 1.97759 0.373341 1.78933 0.45108C1.60108 0.528819 1.43003 0.642974 1.28602 0.786992C1.142 0.931011 1.02784 1.10206 0.950103 1.29031C0.872364 1.47856 0.832572 1.68032 0.833011 1.88399V12.1173C0.832572 12.321 0.872364 12.5227 0.950103 12.711C1.02784 12.8993 1.142 13.0703 1.28602 13.2143C1.43003 13.3583 1.60108 13.4725 1.78933 13.5502C1.97759 13.628 2.17934 13.6678 2.38301 13.6673H17.6163C17.82 13.6678 18.0218 13.628 18.21 13.5502C18.3983 13.4725 18.5693 13.3583 18.7133 13.2143C18.8574 13.0703 18.9715 12.8993 19.0493 12.711C19.127 12.5227 19.1668 12.321 19.1663 12.1173V1.88399C19.1668 1.68032 19.127 1.47856 19.0493 1.29031C18.9715 1.10206 18.8574 0.931011 18.7133 0.786992C18.5693 0.642974 18.3983 0.528819 18.21 0.45108C18.0218 0.373341 17.82 0.333549 17.6163 0.333988ZM15.833 11.1673H4.16634C3.94533 11.1673 3.73337 11.0795 3.57709 10.9232C3.42081 10.767 3.33301 10.555 3.33301 10.334C3.33301 10.113 3.42081 9.90101 3.57709 9.74473C3.73337 9.58845 3.94533 9.50066 4.16634 9.50066H15.833C16.054 9.50066 16.266 9.58845 16.4223 9.74473C16.5785 9.90101 16.6663 10.113 16.6663 10.334C16.6663 10.555 16.5785 10.767 16.4223 10.9232C16.266 11.0795 16.054 11.1673 15.833 11.1673ZM17.4997 4.75899C17.4995 4.91142 17.4388 5.05755 17.331 5.16533C17.2232 5.27312 17.0771 5.33377 16.9247 5.33399H14.7413C14.5889 5.33377 14.4428 5.27312 14.335 5.16533C14.2272 5.05755 14.1666 4.91142 14.1663 4.75899V2.57565C14.1666 2.42322 14.2272 2.2771 14.335 2.16931C14.4428 2.06153 14.5889 2.00088 14.7413 2.00065H16.9247C17.0771 2.00088 17.2232 2.06153 17.331 2.16931C17.4388 2.2771 17.4995 2.42322 17.4997 2.57565V4.75899Z" fill="#454545"/>
</svg>
