<svg width="32" height="32" viewBox="0 0 32 32" fill="none" xmlns="http://www.w3.org/2000/svg">
<g clip-path="url(#clip0_192_5042)">
<path d="M27.1866 17.5424C27.184 16.472 26.9318 15.4201 26.4508 14.4652L27.5554 13.3606C28.3836 12.5325 28.3836 11.185 27.5554 10.3568C27.1424 9.94374 26.6002 9.73681 26.0575 9.73581C26.0568 9.16957 25.836 8.63739 25.4355 8.2369C25.0222 7.82366 24.4796 7.61666 23.9366 7.61591C23.9359 7.07299 23.7289 6.53031 23.3156 6.11701C22.9153 5.71683 22.3835 5.49602 21.8177 5.49502C21.8166 4.92922 21.5959 4.39735 21.1957 3.99711C20.7945 3.59593 20.2611 3.375 19.6938 3.375C19.1265 3.375 18.5931 3.59593 18.1919 3.99711L16.001 6.18807L14.7819 4.9689C14.3807 4.56773 13.8473 4.34679 13.28 4.34679C12.7126 4.34679 12.1792 4.56773 11.7781 4.9689C11.3776 5.3694 11.1569 5.90157 11.1561 6.46781C10.6135 6.46881 10.0712 6.67574 9.65817 7.0888C9.25793 7.48904 9.03718 8.02084 9.03612 8.58671C8.47032 8.58777 7.93845 8.80851 7.53821 9.20876C6.85435 9.89262 6.73585 10.9304 7.18141 11.7377C6.87454 11.838 6.58598 12.0093 6.34249 12.2528C5.51438 13.081 5.51438 14.4285 6.34249 15.2566L7.22716 16.1413L0.198668 23.1698C-0.0453894 23.4138 -0.0453894 23.8096 0.198668 24.0537C0.320728 24.1757 0.480663 24.2368 0.640597 24.2368C0.800532 24.2368 0.960528 24.1757 1.08253 24.0537L5.84706 19.2892L10.3103 23.7524L3.16142 30.9012C2.91737 31.1453 2.91737 31.541 3.16142 31.7852C3.28348 31.9072 3.44342 31.9682 3.60335 31.9682C3.76329 31.9682 3.92328 31.9072 4.04528 31.7852L13.7078 22.1226C13.8858 21.9446 14.0885 21.8004 14.3077 21.6919L15.8199 22.6879C16.8201 23.3467 18.0395 23.604 19.2152 23.4137L27.6186 31.817C27.7406 31.939 27.9006 32.0001 28.0605 32.0001C28.2204 32.0001 28.3804 31.939 28.5024 31.817C28.7465 31.573 28.7465 31.1772 28.5024 30.9331L23.6266 26.0573L24.2161 25.4679C24.4601 25.2239 24.4601 24.8281 24.2161 24.584C23.972 24.34 23.5763 24.34 23.3322 24.584L22.7427 25.1734L21.3627 23.7934L26.5162 18.6398L27.8963 20.0199L27.3082 20.608C27.0641 20.8521 27.0641 21.2478 27.3082 21.4919C27.4303 21.6139 27.5902 21.675 27.7501 21.675C27.9101 21.675 28.0701 21.6139 28.1921 21.4919L28.7802 20.9038L30.9329 23.0566C31.055 23.1786 31.2149 23.2397 31.3749 23.2397C31.5348 23.2397 31.6948 23.1786 31.8168 23.0566C32.0609 22.8125 32.0609 22.4168 31.8168 22.1727L27.1866 17.5424ZM19.0758 4.88097C19.2409 4.71591 19.4604 4.62497 19.6938 4.62497C19.9272 4.62497 20.1467 4.71591 20.3118 4.88097C20.4769 5.04603 20.5678 5.26552 20.5678 5.49896C20.5678 5.73245 20.4768 5.95195 20.3118 6.11701L18.9384 7.49042C18.6943 7.73447 18.6943 8.13021 18.9384 8.37433C19.1824 8.61845 19.5782 8.61839 19.8223 8.37433L21.1957 7.00093C21.3608 6.8358 21.5803 6.74493 21.8137 6.74493C22.0472 6.74493 22.2667 6.83587 22.4317 7.00093C22.7725 7.34173 22.7725 7.89616 22.4317 8.23696L20.3345 10.3342C20.0905 10.5782 20.0905 10.974 20.3345 11.2181C20.4566 11.3401 20.6165 11.4011 20.7765 11.4011C20.9364 11.4011 21.0964 11.3401 21.2184 11.2181L23.3156 9.12088C23.4807 8.95576 23.7001 8.86489 23.9336 8.86489C24.1671 8.86489 24.3866 8.95582 24.5516 9.12088C24.7167 9.28594 24.8076 9.50544 24.8076 9.73887C24.8076 9.9723 24.7167 10.1918 24.5516 10.3569L22.4544 12.4541C22.2104 12.6981 22.2104 13.0939 22.4544 13.338C22.5765 13.46 22.7364 13.521 22.8963 13.521C23.0563 13.521 23.2163 13.46 23.3383 13.338L25.4354 11.2408C25.7762 10.9 26.3307 10.9 26.6715 11.2408C27.0123 11.5816 27.0123 12.1361 26.6715 12.4768L21.5056 17.6427C19.8516 19.2967 17.6525 20.2077 15.3133 20.2077C14.6799 20.2077 14.0723 20.3745 13.5397 20.6861L9.92217 17.0687C10.2005 16.9635 10.456 16.8 10.6728 16.5832C11.0733 16.1827 11.294 15.6506 11.2948 15.0843C11.8374 15.0833 12.3797 14.8763 12.7927 14.4633C13.2058 14.0502 13.4127 13.508 13.4137 12.9654C13.98 12.9646 14.5122 12.7438 14.9126 12.3433C15.3257 11.9303 15.5326 11.388 15.5336 10.8454C16.0999 10.8447 16.632 10.6239 17.0325 10.2234C17.4336 9.82224 17.6546 9.28888 17.6546 8.72152C17.6546 8.15415 17.4336 7.62079 17.0325 7.21961L16.8847 7.0718L19.0758 4.88097ZM12.662 5.85276C12.827 5.6877 13.0465 5.59677 13.28 5.59677C13.5134 5.59677 13.7329 5.6877 13.898 5.85276L16.1488 8.10353C16.3139 8.26859 16.4048 8.48808 16.4048 8.72152C16.4048 8.95495 16.3139 9.17444 16.1488 9.33957C15.9837 9.50462 15.7642 9.59556 15.5308 9.59556C15.2974 9.59556 15.0781 9.50469 14.913 9.33975C14.9129 9.33969 14.9129 9.33963 14.9128 9.3395L12.662 7.08874C12.4969 6.92368 12.406 6.70418 12.406 6.47075C12.406 6.23732 12.4969 6.01788 12.662 5.85276ZM10.542 7.97266C10.7125 7.80222 10.9362 7.7171 11.1601 7.7171C11.3839 7.7171 11.6078 7.80228 11.7781 7.97266L14.0288 10.2234C14.3696 10.5642 14.3696 11.1187 14.0288 11.4595C13.8638 11.6246 13.6443 11.7155 13.4108 11.7155C13.1775 11.7155 12.9581 11.6246 12.793 11.4597C12.793 11.4596 12.7929 11.4596 12.7929 11.4595L10.5421 9.20869C10.377 9.04363 10.2861 8.82414 10.2861 8.59064C10.286 8.35721 10.377 8.13778 10.542 7.97266ZM8.42213 10.0926C8.58719 9.92749 8.80669 9.83662 9.04012 9.83662C9.27362 9.83662 9.49311 9.92755 9.65817 10.0926L11.9089 12.3434C12.2497 12.6842 12.2497 13.2387 11.9089 13.5794C11.5681 13.9202 11.0136 13.9202 10.6728 13.5794L8.42207 11.3286C8.08133 10.9879 8.08133 10.4334 8.42213 10.0926ZM7.22634 13.1367C7.39678 12.9662 7.62059 12.8811 7.84439 12.8811C8.06789 12.8811 8.29151 12.9662 8.46176 13.1361L9.78898 14.4633C9.95404 14.6284 10.045 14.8479 10.045 15.0813C10.045 15.3148 9.95404 15.5343 9.78898 15.6994C9.62392 15.8645 9.40443 15.9554 9.17093 15.9554C8.93769 15.9554 8.71831 15.8646 8.55326 15.6997L8.55294 15.6994L7.22634 14.3728C6.8856 14.0319 6.8856 13.4774 7.22634 13.1367ZM6.73098 18.4053L8.11108 17.0252L12.5744 21.4884L11.1943 22.8685L6.73098 18.4053ZM19.8627 22.2934C19.7088 22.1395 19.4859 22.0764 19.2744 22.1277C18.3285 22.3554 17.32 22.1792 16.5075 21.644L16.169 21.421C18.5193 21.2233 20.7026 20.2135 22.3895 18.5266L25.5086 15.4076C25.7769 16.056 25.9217 16.749 25.935 17.4535L20.479 22.9096L19.8627 22.2934Z" fill="white"/>
<path d="M25.3198 22.5962C25.2036 22.7125 25.1367 22.8731 25.1367 23.0381C25.1367 23.2025 25.2036 23.3637 25.3198 23.4799C25.4361 23.5961 25.5973 23.6631 25.7617 23.6631C25.9267 23.6631 26.0873 23.5962 26.2036 23.4799C26.3198 23.3637 26.3867 23.2025 26.3867 23.0381C26.3867 22.873 26.3198 22.7125 26.2036 22.5962C26.0873 22.48 25.9261 22.4131 25.7617 22.4131C25.5973 22.4131 25.4361 22.48 25.3198 22.5962Z" fill="white"/>
<path d="M4.22364 5.1065C4.3457 5.22856 4.50564 5.28956 4.66557 5.28956C4.82551 5.28956 4.9855 5.22856 5.1075 5.1065C5.35156 4.86244 5.35156 4.4667 5.1075 4.22258L2.16562 1.2807C1.92156 1.03664 1.52582 1.03664 1.2817 1.2807C1.03758 1.52476 1.03764 1.9205 1.2817 2.16462L4.22364 5.1065Z" fill="white"/>
<path d="M7.62499 3.40718C7.97017 3.40718 8.24997 3.12738 8.24997 2.7822V0.624988C8.24997 0.279807 7.97017 0 7.62499 0C7.27981 0 7 0.279807 7 0.624988V2.7822C7 3.12738 7.27981 3.40718 7.62499 3.40718Z" fill="white"/>
<path d="M0.625964 8.24998H2.78317C3.12835 8.24998 3.40816 7.97017 3.40816 7.62499C3.40816 7.27981 3.12835 7 2.78317 7H0.625964C0.280784 7 0.000976562 7.27981 0.000976562 7.62499C0.000976562 7.97017 0.280784 8.24998 0.625964 8.24998Z" fill="white"/>
<path d="M27.336 5.28958C27.4959 5.28958 27.6559 5.22858 27.7779 5.10652L30.7198 2.16464C30.9639 1.92059 30.9639 1.52484 30.7198 1.28072C30.4757 1.0366 30.08 1.03667 29.8359 1.28072L26.894 4.2226C26.6499 4.46666 26.6499 4.8624 26.894 5.10652C27.0161 5.22858 27.176 5.28958 27.336 5.28958Z" fill="white"/>
<path d="M24.375 3.40718C24.7202 3.40718 25 3.12738 25 2.7822V0.624988C25 0.279807 24.7202 0 24.375 0C24.0298 0 23.75 0.279807 23.75 0.624988V2.7822C23.75 3.12738 24.0298 3.40718 24.375 3.40718Z" fill="white"/>
<path d="M28.5928 7.62499C28.5928 7.97017 28.8726 8.24998 29.2178 8.24998H31.375C31.7202 8.24998 32 7.97017 32 7.62499C32 7.27981 31.7202 7 31.375 7H29.2178C28.8726 7 28.5928 7.27981 28.5928 7.62499Z" fill="white"/>
</g>
<defs>
<clipPath id="clip0_192_5042">
<rect width="32" height="32" fill="white"/>
</clipPath>
</defs>
</svg>
