<svg width="33" height="32" viewBox="0 0 33 32" fill="none" xmlns="http://www.w3.org/2000/svg">
<g clip-path="url(#clip0_192_4998)">
<path d="M19.0146 0C18.6694 0 18.3896 0.279785 18.3896 0.625C18.3896 0.970215 18.6694 1.25 19.0146 1.25C25.9265 1.25 31.5496 6.87329 31.5496 13.7849C31.5496 14.1301 31.8296 14.4099 32.1746 14.4099C32.5198 14.4099 32.7996 14.1301 32.7996 13.7849C32.7996 6.18408 26.6157 0 19.0146 0Z" fill="white"/>
<path d="M28.4148 14.4102C28.76 14.4102 29.0398 14.1301 29.0398 13.7852C29.0398 8.25708 24.5425 3.75977 19.0146 3.75977C18.6694 3.75977 18.3896 4.03979 18.3896 4.38477C18.3896 4.72998 18.6694 5.00977 19.0146 5.00977C23.8533 5.00977 27.7898 8.94629 27.7898 13.7852C27.7898 14.1301 28.0696 14.4102 28.4148 14.4102Z" fill="white"/>
<path d="M24.0293 13.7852C24.0293 14.1301 24.3091 14.4102 24.6543 14.4102C24.9995 14.4102 25.2793 14.1301 25.2793 13.7852C25.2793 10.3308 22.469 7.52051 19.0146 7.52051C18.6694 7.52051 18.3896 7.80029 18.3896 8.14526C18.3896 8.49048 18.6694 8.77026 19.0146 8.77026C21.7798 8.77026 24.0293 11.0198 24.0293 13.7852Z" fill="white"/>
<path d="M18.3896 11.9053C18.3896 12.2502 18.6694 12.53 19.0146 12.53C19.7065 12.53 20.2695 13.093 20.2695 13.7852C20.2695 14.1301 20.5493 14.4102 20.8945 14.4102C21.2395 14.4102 21.5195 14.1301 21.5195 13.7852C21.5195 12.4038 20.3958 11.2803 19.0146 11.2803C18.6694 11.2803 18.3896 11.5601 18.3896 11.9053Z" fill="white"/>
<path d="M12.5146 20.292C12.5146 20.6372 12.2349 20.917 11.8896 20.917C11.5444 20.917 11.2646 20.6372 11.2646 20.292C11.2646 19.947 11.5444 19.667 11.8896 19.667C12.2349 19.667 12.5146 19.947 12.5146 20.292Z" fill="white"/>
<path d="M17.9268 31.2415C20.7728 32.6363 24.1966 32.056 26.4471 29.8055L27.7393 28.5133C28.441 27.8123 28.4412 26.6768 27.7396 25.9754L22.7464 20.9828C22.046 20.2813 20.9102 20.2804 20.2091 20.9825L18.0875 23.1043C17.6719 23.5199 17.0306 23.6046 16.5628 23.306C15.8001 22.8185 15.0582 22.2809 14.3577 21.7081C14.0904 21.4896 13.6968 21.5291 13.4783 21.7962C13.2598 22.0636 13.2994 22.4574 13.5665 22.6756C14.3045 23.2791 15.086 23.8456 15.89 24.3592C16.8482 24.9713 18.1441 24.8153 18.9713 23.9881L21.0933 21.8661C21.3055 21.6537 21.6492 21.6532 21.8624 21.8663L26.8558 26.8592C27.0684 27.0721 27.0689 27.4164 26.8558 27.629L25.5633 28.9217C23.6885 30.7965 20.8409 31.2777 18.4769 30.1192C9.81647 25.8724 5.10456 19.1385 2.67683 14.2372C1.51545 11.8932 1.99763 9.05624 3.87678 7.17758L5.14094 5.91367C5.35285 5.70126 5.69685 5.70053 5.90974 5.91391L10.9036 10.9076C11.1151 11.1187 11.1173 11.463 10.9031 11.6766L8.78156 13.7984C7.95441 14.6256 7.79841 15.9215 8.41047 16.88C8.77106 17.4442 9.15974 18.0008 9.56599 18.5343C9.77497 18.8089 10.1671 18.8619 10.4417 18.6529C10.7164 18.4439 10.7696 18.0518 10.5604 17.7769C10.1751 17.2708 9.80598 16.7425 9.46369 16.2071C9.16511 15.7391 9.24983 15.0977 9.66535 14.6822L11.7867 12.5609C12.4881 11.8604 12.4888 10.7245 11.7872 10.0235L6.79377 5.03037C6.09357 4.32895 4.95759 4.32797 4.25666 5.03012L2.99299 6.29379C0.7342 8.55185 0.157052 11.9671 1.55671 14.7921C4.07063 19.867 8.951 26.8402 17.9268 31.2415Z" fill="white"/>
</g>
<defs>
<clipPath id="clip0_192_4998">
<rect width="32" height="32" fill="white" transform="translate(0.799805)"/>
</clipPath>
</defs>
</svg>
