<svg width="89" height="148" viewBox="0 0 89 148" fill="none" xmlns="http://www.w3.org/2000/svg">
<path d="M53 19C53 27.7636 60.3134 35 69.5 35C78.6866 35 86 27.7636 86 19C86 10.2364 78.6866 3 69.5 3C60.3134 3 53 10.2364 53 19Z" stroke="white" stroke-opacity="0.5" stroke-width="6"/>
<circle r="12.5" transform="matrix(-1 0 0 1 15.5 83.5)" stroke="white" stroke-opacity="0.5" stroke-width="6"/>
<path d="M62 137C62 141.551 65.4879 145 69.5 145C73.5121 145 77 141.551 77 137C77 132.449 73.5121 129 69.5 129C65.4879 129 62 132.449 62 137Z" stroke="white" stroke-opacity="0.5" stroke-width="6"/>
</svg>
