<svg width="129" height="216" viewBox="0 0 129 216" fill="none" xmlns="http://www.w3.org/2000/svg">
<path fill-rule="evenodd" clip-rule="evenodd" d="M28 50C40.1503 50 50 40.1503 50 28C50 15.8497 40.1503 6 28 6C15.8497 6 6 15.8497 6 28C6 40.1503 15.8497 50 28 50ZM28 56C43.464 56 56 43.464 56 28C56 12.536 43.464 0 28 0C12.536 0 0 12.536 0 28C0 43.464 12.536 56 28 56ZM106.5 138C115.613 138 123 130.613 123 121.5C123 112.387 115.613 105 106.5 105C97.3873 105 90 112.387 90 121.5C90 130.613 97.3873 138 106.5 138ZM106.5 144C118.926 144 129 133.926 129 121.5C129 109.074 118.926 99 106.5 99C94.0736 99 84 109.074 84 121.5C84 133.926 94.0736 144 106.5 144ZM38 200C38 205.523 33.5229 210 28 210C22.4772 210 18 205.523 18 200C18 194.477 22.4772 190 28 190C33.5229 190 38 194.477 38 200ZM44 200C44 208.837 36.8366 216 28 216C19.1634 216 12 208.837 12 200C12 191.163 19.1634 184 28 184C36.8366 184 44 191.163 44 200Z" fill="#2D64F4" fill-opacity="0.5"/>
</svg>
