<svg width="35" height="35" viewBox="0 0 35 35" fill="none" xmlns="http://www.w3.org/2000/svg">
<g clip-path="url(#clip0_192_4686)">
<path d="M32.667 5.83297H11.9587L10.617 1.39439C10.2994 0.360576 9.20891 -0.225008 8.1717 0.0813034L5.20078 0.956303C4.8735 1.05311 4.57674 1.23273 4.3392 1.4778L0.992034 4.94455C0.740351 5.20758 0.566674 5.53535 0.490367 5.8913C0.149117 7.4663 -0.792966 13.176 1.4412 20.5621C3.67537 27.9483 7.62453 32.2148 8.78537 33.3459C9.04547 33.6012 9.3711 33.7797 9.72628 33.8616L14.4472 34.9506C14.5932 34.9844 14.7425 35.0014 14.8923 35.0014C15.0826 35.0012 15.272 34.9739 15.4546 34.9203L17.0984 34.4356L18.4232 34.0447C18.9275 33.8994 19.3519 33.5568 19.6004 33.0945C19.8479 32.6399 19.9023 32.105 19.7514 31.6099L19.0124 29.1663H32.667C33.9557 29.1663 35.0004 28.1216 35.0004 26.833V8.1663C35.0004 6.87764 33.9557 5.83297 32.667 5.83297ZM23.4795 17.3246L33.7619 7.7778C33.8082 7.90217 33.8325 8.03362 33.8337 8.1663V26.833C33.832 26.958 33.8102 27.0819 33.7689 27.1999L23.4795 17.3246ZM32.667 6.99964C32.7332 7.0006 32.7992 7.00724 32.8642 7.01947L20.6504 18.356C20.2029 18.771 19.5112 18.771 19.0637 18.356L10.6637 10.5796L11.2826 10.397C11.786 10.2506 12.2095 9.90826 12.458 9.44672C12.7052 8.99246 12.7593 8.45784 12.608 7.9633L12.3145 6.99964H32.667ZM9.17853 24.0511C7.97422 22.5767 7.07874 20.8752 6.54537 19.0478C5.79195 16.7452 5.6892 14.2791 6.24845 11.9218C6.26049 11.89 6.28726 11.8661 6.3202 11.8576L9.35762 10.9622L16.2083 17.3019L9.17853 24.0511ZM18.5702 32.5391C18.4691 32.7266 18.2966 32.8654 18.0919 32.9241L17.3184 33.1522L15.898 28.4517C15.8406 28.2487 15.6781 28.0925 15.473 28.0431C15.2678 27.9938 15.0521 28.0591 14.9087 28.2138C14.7653 28.3686 14.7166 28.5887 14.7815 28.7895L16.2024 33.483L15.1256 33.8003C14.9902 33.8405 14.8467 33.8449 14.7091 33.8131L9.9882 32.7246C9.84191 32.6904 9.70788 32.6166 9.60087 32.5111C8.49253 31.4291 4.70845 27.344 2.5577 20.225C0.406951 13.106 1.30412 7.6413 1.6302 6.13747C1.66156 5.99315 1.73222 5.86031 1.83437 5.75364L5.17803 2.28864C5.27449 2.18866 5.395 2.11515 5.52803 2.07514L6.61362 1.75547L8.03403 6.45539C8.10835 6.70157 8.33512 6.87005 8.59228 6.87014C8.64943 6.87043 8.70628 6.86197 8.76087 6.84505C9.06911 6.75186 9.24353 6.42652 9.15053 6.11822L7.73478 1.42589L8.50128 1.20014C8.92469 1.0725 9.37193 1.30952 9.50403 1.73155L11.4874 8.29989C11.5483 8.49687 11.5272 8.71009 11.429 8.89139C11.3276 9.07873 11.1553 9.21761 10.9507 9.27697L10.1766 9.50505L9.94737 8.74672C9.84831 8.44616 9.52766 8.27941 9.22471 8.37089C8.92176 8.46238 8.74701 8.77874 8.83087 9.08389L9.05778 9.83522L5.99062 10.7394C5.57011 10.8623 5.24241 11.1928 5.1232 11.6144C4.50788 14.1826 4.61386 16.8708 5.42945 19.3826C6.14572 21.9321 7.54758 24.2362 9.48245 26.0443C9.81146 26.3344 10.2671 26.4337 10.687 26.3068L13.7618 25.4003L13.991 26.1586C14.0484 26.3617 14.2109 26.5179 14.416 26.5672C14.6211 26.6166 14.8369 26.5513 14.9803 26.3965C15.1237 26.2418 15.1723 26.0217 15.1075 25.8209L14.8806 25.0696L15.6465 24.8438C16.07 24.7172 16.5167 24.9538 16.6499 25.3752L18.6332 31.9441C18.6946 32.1424 18.6729 32.3571 18.5731 32.5391H18.5702ZM18.6595 27.9996L17.7658 25.0416C17.4477 24.0058 16.3544 23.4199 15.3158 23.7285L10.3574 25.1903C10.3218 25.201 10.2833 25.194 10.2536 25.1716C10.172 25.0999 10.0786 25.0106 9.9707 24.9091L17.0664 18.0958L18.2704 19.2106C19.167 20.0373 20.5482 20.0373 21.4449 19.2106L22.6232 18.1162L32.8939 27.9746C32.8193 27.9904 32.7433 27.9988 32.667 27.9996H18.6595Z" />
<path d="M15.1673 9.33268H24.5007C24.8228 9.33268 25.084 9.07152 25.084 8.74935C25.084 8.42718 24.8228 8.16602 24.5007 8.16602H15.1673C14.8452 8.16602 14.584 8.42718 14.584 8.74935C14.584 9.07152 14.8452 9.33268 15.1673 9.33268Z" />
<path d="M32.0843 12.833C31.7621 12.833 31.501 13.0942 31.501 13.4163V21.583C31.501 21.9052 31.7621 22.1664 32.0843 22.1664C32.4065 22.1664 32.6676 21.9052 32.6676 21.583V13.4163C32.6676 13.0942 32.4065 12.833 32.0843 12.833Z" />
</g>
<defs>
<clipPath id="clip0_192_4686">
<rect width="35" height="35" fill="white"/>
</clipPath>
</defs>
</svg>
