<svg width="30" height="30" viewBox="0 0 30 30" fill="none" xmlns="http://www.w3.org/2000/svg">
<g clip-path="url(#clip0_192_4679)">
<path d="M23.3555 16.0171L21.3187 15.2885L21.365 15.1531C21.4477 14.9113 21.3236 14.6474 21.0845 14.5569L19.1926 13.8407C18.9718 13.7571 18.7229 13.849 18.6094 14.0564L18.4891 14.2762L17.8127 14.0343V13.3049C18.6912 12.6371 19.3027 11.6364 19.4585 10.4924C20.5262 10.4884 21.3935 9.61891 21.3935 8.55045C21.3935 8.00817 21.1698 7.51739 20.8103 7.16471V5.62282C20.8101 2.5224 18.2878 0 15.1874 0C12.087 0 9.56457 2.5224 9.56457 5.62282V7.16483C9.20504 7.51751 8.98145 8.00823 8.98145 8.55051C8.98145 9.61897 9.84881 10.4885 10.9164 10.4924C11.0722 11.6365 11.6837 12.6372 12.5622 13.305V14.0348L11.1833 14.528L11.0827 14.2209C11.0428 14.0989 10.9549 13.9983 10.8394 13.9422C10.7238 13.8861 10.5904 13.8794 10.4698 13.9235L8.74356 14.5551C8.54639 14.6273 8.42018 14.8206 8.4336 15.0301L8.4636 15.501L7.03157 16.0132C6.83399 16.0743 5.2461 16.6147 4.82528 18.3265C4.44472 19.8747 3.62933 25.8683 3.59523 26.1198C3.58732 26.1752 3.41078 27.4881 4.15052 28.3403C4.54866 28.7991 5.11462 29.0317 5.83263 29.0317H9.32645L9.35991 29.5566C9.37584 29.8059 9.58274 30.0001 9.83264 30.0001H15.5992C15.5996 30 15.6001 30.0001 15.6005 30.0001C15.8622 30.0001 16.0742 29.7881 16.0742 29.5264C16.0742 29.4623 16.0616 29.4014 16.0385 29.3456L15.9356 29.0317H16.3947C16.9456 29.6494 17.7211 30.0001 18.5589 30.0001H25.9551C26.2168 30.0001 26.4288 29.7881 26.4288 29.5264V20.3053C26.4287 17.1902 23.4857 16.0653 23.3555 16.0171ZM5.83257 28.0842C5.39669 28.0842 5.08122 27.9656 4.86806 27.7217C4.48902 27.2879 4.49786 26.5133 4.53349 26.25C4.54187 26.1882 5.37653 20.0522 5.74515 18.5525C6.05136 17.3069 7.26143 16.9331 7.31053 16.9184C7.32026 16.9157 7.32993 16.9126 7.33948 16.9092L8.52629 16.4847L9.0176 24.1894H8.27469C8.01307 24.1894 7.80102 24.4014 7.80102 24.6631C7.80102 24.9248 8.01313 25.1368 8.27469 25.1368H9.07801L9.26598 28.0842H5.83257ZM19.8772 7.65221C19.8995 7.66282 19.9213 7.67424 19.9427 7.68643C19.9484 7.68965 19.954 7.69293 19.9596 7.69627C19.9798 7.70834 19.9994 7.72118 20.0186 7.73454C20.0242 7.7384 20.0298 7.74209 20.0353 7.74614C20.2839 7.92713 20.4459 8.22022 20.4459 8.55051C20.446 9.08307 20.0252 9.5193 19.4987 9.54408V7.55764C19.5032 7.55782 19.5078 7.55788 19.5124 7.55823C19.535 7.55963 19.5575 7.5618 19.5797 7.56473C19.5869 7.56567 19.5942 7.56626 19.6014 7.56731C19.6631 7.57663 19.723 7.59157 19.7804 7.61178C19.7821 7.61243 19.7838 7.61313 19.7855 7.61372C19.8121 7.62321 19.838 7.63387 19.8634 7.64547C19.868 7.6477 19.8726 7.64999 19.8772 7.65221ZM10.8762 9.54408C10.3496 9.51936 9.92885 9.08307 9.92885 8.55051C9.92885 8.22004 10.091 7.92696 10.3398 7.74596C10.3451 7.74209 10.3505 7.73852 10.3558 7.73477C10.3752 7.72124 10.395 7.70829 10.4153 7.69616C10.4209 7.69282 10.4264 7.6896 10.4321 7.68643C10.4534 7.67424 10.4752 7.66282 10.4976 7.65215C10.5022 7.64993 10.5068 7.64764 10.5115 7.64553C10.5369 7.63393 10.5627 7.62333 10.5892 7.61389C10.591 7.61325 10.5928 7.61243 10.5946 7.61178C10.6521 7.59157 10.712 7.57674 10.7736 7.56737C10.7808 7.56631 10.7881 7.56567 10.7953 7.56473C10.8175 7.5618 10.84 7.55963 10.8626 7.55823C10.8672 7.55799 10.8717 7.55793 10.8763 7.55764V9.54408H10.8762ZM11.0358 6.09807C10.9343 6.18802 10.8762 6.31704 10.8762 6.45262V6.60895C10.8662 6.60919 10.8562 6.60995 10.8462 6.61036C10.8332 6.61089 10.8201 6.61141 10.8071 6.61217C10.7865 6.61341 10.7658 6.61505 10.7453 6.61692C10.735 6.61786 10.7248 6.61868 10.7146 6.61985C10.6896 6.62249 10.6647 6.62577 10.6398 6.6294C10.6344 6.63016 10.6291 6.63087 10.6237 6.63169C10.5862 6.63749 10.5489 6.64393 10.512 6.6519V5.62282C10.512 3.04476 12.6094 0.947401 15.1874 0.947401C17.7653 0.947401 19.8627 3.04482 19.8627 5.62282V6.65178C19.8257 6.64382 19.7885 6.63737 19.751 6.63163C19.7456 6.63081 19.7403 6.6301 19.7349 6.62934C19.71 6.62577 19.6851 6.62249 19.66 6.61979C19.6498 6.61874 19.6396 6.61786 19.6294 6.61686C19.6088 6.61505 19.5882 6.61335 19.5676 6.61212C19.5546 6.61135 19.5415 6.61077 19.5284 6.6103C19.5185 6.60995 19.5085 6.60913 19.4985 6.60889V6.45257C19.4985 6.3328 19.4531 6.21755 19.3716 6.12995L17.8636 4.5089C17.7914 4.43126 17.6985 4.38304 17.6006 4.36552C17.4748 4.34302 17.3408 4.37132 17.2318 4.45312C17.2107 4.469 15.0913 6.03608 12.2998 6.03608C12.0008 6.03608 11.7004 6.01798 11.407 5.98235C11.2725 5.96606 11.1373 6.00813 11.0358 6.09807ZM11.8235 9.91522V7.1452V6.97012C11.982 6.97909 12.1411 6.98366 12.2997 6.98366C14.7445 6.98366 16.6783 5.93847 17.4464 5.45144L18.5513 6.63901V7.1452V9.91522C18.5513 11.3401 17.6459 12.5576 16.3802 13.0226C16.3791 13.0229 16.378 13.0234 16.3769 13.0237C16.2762 13.0606 16.1732 13.0927 16.0682 13.1199C16.0681 13.1199 16.0679 13.1199 16.0676 13.12C16.02 13.1323 15.9717 13.1433 15.9232 13.1534C15.9129 13.1556 15.9026 13.1577 15.8922 13.1597C15.8485 13.1685 15.8046 13.1764 15.7603 13.1833C15.7537 13.1843 15.7472 13.1856 15.7406 13.1866C15.691 13.1941 15.6409 13.2004 15.5906 13.2058C15.579 13.207 15.5673 13.2079 15.5557 13.209C15.5163 13.2127 15.4768 13.2157 15.4371 13.218C15.4228 13.2188 15.4086 13.2197 15.3943 13.2204C15.3438 13.2227 15.2932 13.2242 15.2422 13.2242H15.1326C15.0816 13.2242 15.0309 13.2227 14.9804 13.2204C14.9661 13.2197 14.952 13.2188 14.9377 13.218C14.898 13.2157 14.8584 13.2127 14.8191 13.209C14.8075 13.2079 14.7958 13.207 14.7841 13.2058C14.7338 13.2004 14.6838 13.1942 14.6342 13.1866C14.6275 13.1856 14.6209 13.1843 14.6141 13.1833C14.57 13.1762 14.5261 13.1685 14.4826 13.1597C14.4721 13.1576 14.4617 13.1555 14.4512 13.1533C14.4028 13.1431 14.3548 13.1322 14.3074 13.12C14.307 13.1199 14.3066 13.1198 14.3063 13.1198C14.2015 13.0927 14.0988 13.0606 13.9982 13.0239C13.9968 13.0234 13.9954 13.0229 13.994 13.0224C12.7287 12.5572 11.8235 11.34 11.8235 9.91522ZM16.8652 13.8508V14.7657L15.1873 16.0462L13.5095 14.7657V13.8508C13.5583 13.871 13.6078 13.8894 13.6573 13.9077C13.6628 13.9097 13.6681 13.9119 13.6736 13.9139C13.7288 13.9342 13.7846 13.9527 13.8406 13.9706C13.8519 13.9742 13.8629 13.9782 13.8742 13.9817C13.9253 13.9974 13.9768 14.0117 14.0285 14.0256C14.0452 14.0301 14.0616 14.0351 14.0783 14.0393C14.1257 14.0515 14.1736 14.062 14.2215 14.0725C14.2427 14.0772 14.2638 14.0824 14.2851 14.0867C14.3299 14.0958 14.3751 14.1033 14.4202 14.1109C14.4448 14.1151 14.4694 14.12 14.4942 14.1237C14.5381 14.1303 14.5821 14.1353 14.6262 14.1405C14.6526 14.1437 14.6787 14.1476 14.7052 14.1502C14.7522 14.1549 14.7994 14.1579 14.8468 14.161C14.8705 14.1626 14.894 14.1651 14.9179 14.1662C14.9892 14.1697 15.0607 14.1716 15.1325 14.1716H15.2421C15.3138 14.1716 15.3854 14.1698 15.4567 14.1662C15.4807 14.165 15.5043 14.1625 15.5281 14.161C15.5752 14.1578 15.6224 14.1549 15.6693 14.1502C15.696 14.1476 15.7222 14.1436 15.7487 14.1405C15.7927 14.1352 15.8366 14.1303 15.8803 14.1237C15.9052 14.1199 15.9298 14.115 15.9547 14.1108C15.9997 14.1033 16.0447 14.0957 16.0894 14.0867C16.1108 14.0823 16.1318 14.0771 16.1531 14.0724C16.201 14.0619 16.2489 14.0513 16.2963 14.0393C16.3131 14.035 16.3295 14.03 16.3461 14.0256C16.3978 14.0117 16.4493 13.9974 16.5004 13.9817C16.5117 13.9782 16.5228 13.9742 16.534 13.9706C16.59 13.9527 16.6458 13.9342 16.701 13.9139C16.7066 13.9119 16.7119 13.9097 16.7174 13.9077C16.7669 13.8893 16.8164 13.871 16.8652 13.8508ZM12.5644 15.04C12.5757 15.1725 12.6417 15.2951 12.7484 15.3765L14.9 17.0186C14.9848 17.0833 15.0861 17.1157 15.1873 17.1157C15.2885 17.1157 15.3899 17.0833 15.4747 17.0186L17.6262 15.3765C17.733 15.2949 17.799 15.1724 17.8102 15.0397L18.0286 15.1178L13.8684 22.7228L11.4784 15.4286L12.5644 15.04ZM10.2771 29.0526L9.40157 15.3232L10.3351 14.9816L13.4459 24.4757L13.5557 24.8106C13.5557 24.8106 13.5557 24.8106 13.5557 24.8107L14.9455 29.0526H10.2771ZM15.5985 28.0028L14.6594 25.1368H15.5985V28.0028ZM18.5589 29.0526C17.9388 29.0526 17.3688 28.7683 16.9947 28.2726C16.9938 28.2714 16.9928 28.2704 16.992 28.2693C16.9845 28.2595 16.9766 28.2501 16.9683 28.241C16.9656 28.238 16.9628 28.2349 16.96 28.2319C16.9526 28.224 16.9447 28.2165 16.9368 28.2092C16.933 28.2057 16.9292 28.2021 16.9253 28.1987C16.9178 28.1923 16.91 28.1863 16.9023 28.1803C16.8976 28.1769 16.8932 28.1733 16.8884 28.17C16.8806 28.1645 16.8724 28.1595 16.8643 28.1544C16.8594 28.1514 16.8546 28.1483 16.8497 28.1456C16.8411 28.1407 16.8322 28.1363 16.8233 28.132C16.8185 28.1297 16.8139 28.1273 16.8091 28.1252C16.7999 28.1211 16.7903 28.1174 16.7807 28.1139C16.776 28.1121 16.7713 28.1103 16.7665 28.1087C16.757 28.1056 16.7474 28.1029 16.7377 28.1004C16.7323 28.099 16.7271 28.0975 16.7217 28.0963C16.7128 28.0943 16.7038 28.0927 16.6947 28.0912C16.6881 28.0901 16.6815 28.089 16.6749 28.0882C16.667 28.0872 16.6591 28.0866 16.6511 28.086C16.6429 28.0854 16.6348 28.0849 16.6266 28.0847C16.6233 28.0846 16.6202 28.0842 16.617 28.0842H16.5459V25.1368H17.6115H18.5589C19.6385 25.1368 20.5168 26.015 20.5168 27.0946C20.5168 28.1742 19.6385 29.0526 18.5589 29.0526ZM22.8363 29.0526V22.4526C22.8363 22.1909 22.6243 21.9789 22.3627 21.9789C22.101 21.9789 21.889 22.1909 21.889 22.4526V29.0526H20.7033C21.1755 28.5358 21.4641 27.8483 21.4641 27.0946C21.4641 25.4927 20.1608 24.1894 18.5589 24.1894H18.2742L19.4918 20.6302C19.5764 20.3826 19.4445 20.1133 19.1969 20.0287C18.9495 19.9443 18.68 20.076 18.5954 20.3236L17.2729 24.1894H14.349L14.2983 24.0346L14.273 23.9574L19.2427 14.8728L20.3202 15.2806L19.0284 19.0573C18.9438 19.3048 19.0758 19.5741 19.3234 19.6588C19.5706 19.7432 19.8402 19.6115 19.9249 19.3638L21.0121 16.185L23.0326 16.9077C23.1616 16.9567 25.4814 17.8741 25.4814 20.3052V29.0525H22.8363V29.0526Z" />
</g>
<defs>
<clipPath id="clip0_192_4679">
<rect width="30" height="30" fill="white"/>
</clipPath>
</defs>
</svg>
