<svg width="35" height="35" viewBox="0 0 35 35" fill="none" xmlns="http://www.w3.org/2000/svg">
<path d="M25.7031 1.09375H8.20312C7.7684 1.09505 7.35186 1.26832 7.04446 1.57571C6.73707 1.88311 6.5638 2.29965 6.5625 2.73438V14.2188H4.375C4.30566 14.2177 4.23682 14.2307 4.17266 14.257L1.43828 15.3508C1.33653 15.3913 1.24929 15.4615 1.18786 15.5521C1.12643 15.6428 1.09364 15.7498 1.09375 15.8594V23.5156C1.09422 23.6057 1.11692 23.6943 1.15986 23.7734C1.20279 23.8526 1.26462 23.92 1.33984 23.9695L2.98594 25.0633C3.07443 25.1241 3.17935 25.1565 3.28672 25.1562H6.5625V32.2656C6.5638 32.7003 6.73707 33.1169 7.04446 33.4243C7.35186 33.7317 7.7684 33.905 8.20312 33.9062H25.7031C26.1378 33.905 26.5544 33.7317 26.8618 33.4243C27.1692 33.1169 27.3425 32.7003 27.3438 32.2656V2.73438C27.3425 2.29965 27.1692 1.88311 26.8618 1.57571C26.5544 1.26832 26.1378 1.09505 25.7031 1.09375ZM6.50781 18.5938H6.5625V24.0625H3.45078L2.1875 23.2203V16.2312L4.47891 15.3125H10.9375C11.2276 15.3125 11.5058 15.4277 11.7109 15.6329C11.916 15.838 12.0312 16.1162 12.0312 16.4062C12.0312 16.6963 11.916 16.9745 11.7109 17.1796C11.5058 17.3848 11.2276 17.5 10.9375 17.5H6.01562C5.87058 17.5 5.73148 17.5576 5.62893 17.6602C5.52637 17.7627 5.46875 17.9018 5.46875 18.0469C5.46745 18.4816 5.29418 18.8981 4.98679 19.2055C4.67939 19.5129 4.26285 19.6862 3.82813 19.6875V20.7812C4.45824 20.7805 5.06881 20.5625 5.55693 20.164C6.04506 19.7655 6.38088 19.2109 6.50781 18.5938ZM26.25 32.2656C26.25 32.4107 26.1924 32.5498 26.0898 32.6523C25.9873 32.7549 25.8482 32.8125 25.7031 32.8125H8.20312C8.05808 32.8125 7.91898 32.7549 7.81643 32.6523C7.71387 32.5498 7.65625 32.4107 7.65625 32.2656V18.5938H10.9375C11.5177 18.5938 12.0741 18.3633 12.4843 17.953C12.8945 17.5428 13.125 16.9864 13.125 16.4062C13.125 15.8261 12.8945 15.2697 12.4843 14.8595C12.0741 14.4492 11.5177 14.2188 10.9375 14.2188H7.65625V2.73438C7.65625 2.58933 7.71387 2.45024 7.81643 2.34768C7.91898 2.24512 8.05808 2.1875 8.20312 2.1875H25.7031C25.8482 2.1875 25.9873 2.24512 26.0898 2.34768C26.1924 2.45024 26.25 2.58933 26.25 2.73438V32.2656Z" />
<path d="M16.9533 10.9373C17.0983 10.9373 17.2374 10.8797 17.3399 10.7771L20.4336 7.68344L19.6603 6.91016L16.9533 9.61719L15.7928 8.45672L15.0195 9.23L16.5666 10.7771C16.6692 10.8797 16.8083 10.9373 16.9533 10.9373Z" />
<path d="M22.0992 5.51796L17.1774 3.33046C17.1071 3.29804 17.0306 3.28125 16.9531 3.28125C16.8757 3.28125 16.7992 3.29804 16.7289 3.33046L11.807 5.51796C11.7105 5.56035 11.6286 5.63007 11.5712 5.7185C11.5139 5.80694 11.4837 5.91023 11.4844 6.01562V9.52109C11.4841 10.2156 11.6312 10.9023 11.9159 11.5358C12.2006 12.1693 12.6164 12.7352 13.136 13.1961L16.5922 16.2695C16.692 16.3572 16.8203 16.4056 16.9531 16.4056C17.086 16.4056 17.2143 16.3572 17.3141 16.2695L20.7703 13.1961C21.2899 12.7352 21.7057 12.1693 21.9904 11.5358C22.2751 10.9023 22.4222 10.2156 22.4219 9.52109V6.01562C22.4226 5.91023 22.3924 5.80694 22.335 5.7185C22.2777 5.63007 22.1957 5.56035 22.0992 5.51796ZM21.3281 9.52109C21.3275 10.0615 21.2127 10.5956 20.9912 11.0885C20.7697 11.5814 20.4466 12.0219 20.043 12.3812L16.9531 15.1266L13.8633 12.3812C13.4597 12.0219 13.1366 11.5814 12.9151 11.0885C12.6936 10.5956 12.5788 10.0615 12.5781 9.52109V6.37109L16.9531 4.42421L21.3281 6.37109V9.52109Z" />
<path d="M33.3594 12.0312H31.7188V10.3906C31.7188 9.9555 31.5459 9.5382 31.2382 9.23053C30.9305 8.92285 30.5132 8.75 30.0781 8.75C29.643 8.75 29.2257 8.92285 28.918 9.23053C28.6104 9.5382 28.4375 9.9555 28.4375 10.3906V28.9844C28.4376 29.0286 28.4431 29.0727 28.4539 29.1156L29.5477 33.4906C29.5773 33.6089 29.6456 33.7138 29.7417 33.7888C29.8378 33.8638 29.9562 33.9046 30.0781 33.9046C30.2 33.9046 30.3184 33.8638 30.4146 33.7888C30.5107 33.7138 30.579 33.6089 30.6086 33.4906L31.7023 29.1156C31.7132 29.0727 31.7187 29.0286 31.7188 28.9844V13.125H32.8125V18.0469H33.9062V12.5781C33.9062 12.4331 33.8486 12.294 33.7461 12.1914C33.6435 12.0889 33.5044 12.0312 33.3594 12.0312ZM30.0781 31.1063L29.6844 29.5312H30.4719L30.0781 31.1063ZM30.625 28.4375H29.5312V13.125H30.625V28.4375ZM30.625 12.0312H29.5312V10.3906C29.5312 10.2456 29.5889 10.1065 29.6914 10.0039C29.794 9.90137 29.9331 9.84375 30.0781 9.84375C30.2232 9.84375 30.3623 9.90137 30.4648 10.0039C30.5674 10.1065 30.625 10.2456 30.625 10.3906V12.0312Z" />
<path d="M9.84375 20.7812H12.0312V21.875H9.84375V20.7812Z" />
<path d="M13.125 20.7812H24.0625V21.875H13.125V20.7812Z" />
<path d="M9.84375 24.0625H12.0312V25.1562H9.84375V24.0625Z" />
<path d="M13.125 24.0625H24.0625V25.1562H13.125V24.0625Z" />
<path d="M9.84375 27.3438H12.0312V28.4375H9.84375V27.3438Z" />
<path d="M13.125 27.3438H24.0625V28.4375H13.125V27.3438Z" />
<path d="M9.84375 30.625H12.0312V31.7188H9.84375V30.625Z" />
<path d="M13.125 30.625H24.0625V31.7188H13.125V30.625Z" />
</svg>
