<svg width="35" height="35" viewBox="0 0 35 35" fill="none" xmlns="http://www.w3.org/2000/svg">
<g clip-path="url(#clip0_192_4651)">
<path d="M33.8104 21.7305C33.6812 20.6711 33.3245 19.7771 32.3484 19.0717C31.5749 18.4645 30.5196 18.2974 27.6398 17.5806V16.2651C27.6573 16.2564 27.6454 16.2625 27.664 16.253L27.664 16.2531C27.7156 16.2284 27.861 16.1496 27.9391 16.1023L27.9476 16.0973C29.2491 15.348 30.1963 14.0521 30.5465 12.7563C31.1497 13.87 31.0037 14.9132 30.9541 15.7671C30.9121 16.4907 31.5645 17.0569 32.274 16.9099L33.5367 16.648C33.9135 16.5698 34.2408 16.3342 34.4345 16.0015C34.6279 15.6695 34.6713 15.2696 34.5535 14.9043C33.8043 12.58 32.8334 11.4252 32.328 10.9477C32.3569 10.6124 32.2902 10.2898 32.1431 9.99993C32.2676 9.79041 32.3481 9.55785 32.3736 9.31141C32.3922 9.25829 32.4028 9.20149 32.4028 9.14195C32.3117 8.18293 32.7997 5.80675 31.2796 3.44616L31.2787 3.44678C30.9886 3.04045 30.3464 3.24587 30.3464 3.74476C30.3464 3.93391 30.4101 3.96857 30.5878 4.28801C31.5246 5.97314 31.3571 7.44738 31.3778 7.55942C31.1435 7.43145 30.8791 7.34225 30.596 7.30219C30.4052 7.06641 30.1119 6.97242 29.8378 7.028C27.2341 7.55409 26.1941 6.34843 25.8677 5.80559C25.6981 5.5234 25.4004 5.3549 25.0714 5.35483C25.0714 5.35483 25.0714 5.35483 25.0713 5.35483C24.7423 5.35483 24.4446 5.52334 24.2749 5.80552C24.2748 5.80552 24.2748 5.80559 24.2748 5.80559C23.9485 6.3483 22.9085 7.55382 20.3048 7.028C20.0269 6.97174 19.7348 7.06956 19.5465 7.30226C19.2635 7.34231 18.999 7.43152 18.7648 7.55949V7.34669C18.7648 2.14446 24.7132 -0.82781 28.9207 2.35221C29.1437 2.52666 29.4646 2.4864 29.6389 2.26348C29.8134 2.04056 29.7728 1.71749 29.5499 1.54303C24.6499 -2.19609 17.9919 1.33878 17.7468 7.02601C17.7349 7.30403 17.742 7.34334 17.7399 9.14195C17.7399 9.20169 17.7506 9.25877 17.7694 9.31209C17.794 9.54896 17.8693 9.77297 17.9859 9.97607C17.8311 10.2698 17.7588 10.601 17.7887 10.9477C17.2832 11.4251 16.3122 12.58 15.5632 14.9042C15.3158 15.6719 15.7918 16.4845 16.5799 16.648C17.844 16.903 17.8728 16.9332 18.0687 16.9332C18.3289 16.9332 18.5805 16.8406 18.7827 16.6661C19.2259 16.2834 19.1681 15.8265 19.1446 15.5036C19.0902 14.7515 19.0185 13.7527 19.5874 12.7252C20.0531 14.1195 20.6862 15.1297 21.9824 15.9662C22.2723 16.1531 22.4759 16.2513 22.4827 16.255V17.5804C19.2296 18.3902 18.4487 18.456 17.4973 19.2931C16.5527 18.4639 15.8054 18.3998 12.5136 17.5804V16.2539C12.5216 16.2491 12.8282 16.1012 13.2039 15.8364C15.7799 14.0191 15.6096 11.2133 15.6204 11.1737C17.0222 10.8683 17.6736 9.44813 16.9115 8.37981C16.9256 6.14862 16.9081 4.31946 15.1399 2.3548C10.8788 -2.42366 2.93401 0.607125 2.93401 7.00482V8.37598C2.93401 8.37728 2.93421 8.37858 2.93421 8.37987C2.73009 8.66589 2.61169 9.00352 2.61169 9.365C2.61169 10.2379 3.29987 10.9722 4.22553 11.1738C4.24063 11.6471 4.24829 11.9839 4.39492 12.5629C4.8005 14.1951 5.91332 15.5381 7.35694 16.2661V17.5804C4.35965 18.3266 3.42087 18.4655 2.6484 19.0715C1.8998 19.6125 1.44603 20.3571 1.27711 21.1742C1.18571 21.6159 0.0223727 32.1322 0.0217575 32.1392C-0.118721 33.7626 0.810899 35 2.41557 35H6.89907C7.18208 35 7.41156 34.7706 7.41156 34.4875C7.41156 34.2045 7.18208 33.975 6.89907 33.975H4.9701L5.47828 24.3626C5.49318 24.08 5.27614 23.8388 4.99355 23.8238C4.71026 23.8061 4.46964 24.0259 4.45467 24.3085L4.3537 26.2195H1.71536C2.19306 22.0717 2.18889 21.6485 2.33757 21.1578C2.8152 19.5814 4.60513 19.3386 4.65065 19.3104C5.79923 21.1058 7.78911 22.2059 9.93539 22.2059C12.0817 22.2059 14.0715 21.1057 15.2201 19.3104C15.3312 19.3426 15.8576 19.432 16.408 19.7619C16.4303 19.7752 16.4535 19.7868 16.4775 19.7967C16.5462 19.8423 16.7305 19.9811 16.8353 20.0741C16.7742 20.2171 16.4546 20.5665 16.3119 21.7354L15.8101 26.2194H15.5382L15.4372 24.3085C15.4223 24.0258 15.1816 23.8069 14.8984 23.8237C14.6158 23.8387 14.3987 24.0799 14.4136 24.3625L14.9218 33.975H9.29076C9.00775 33.975 8.77827 34.2044 8.77827 34.4875C8.77827 34.7705 9.00775 35 9.29076 35C10.021 35 21.0395 35 21.7849 35C22.068 35 22.2974 34.7705 22.2974 34.4875C22.2974 34.2044 22.068 33.975 21.7849 33.975H20.0959L20.6041 24.3625C20.619 24.0799 20.402 23.8387 20.1193 23.8237C19.838 23.8079 19.5954 24.0258 19.5805 24.3085L19.5511 24.8639L17.0565 24.2994C17.4192 21.9078 17.0764 20.6702 18.5889 19.7618C19.2107 19.3892 19.7904 19.3194 20.0097 19.2524C20.2949 21.9312 22.4857 23.0794 22.4991 23.0917L22.5062 23.0959C22.7521 23.2203 23.0156 23.4073 23.7636 23.6193C24.492 23.8128 25.1124 23.7887 25.099 23.7887C26.0809 23.7887 27.0589 23.4812 27.815 22.9869L27.8221 22.9823C27.8895 22.9332 28.4058 22.6298 28.9362 22.0128C29.6263 21.2084 30.0258 20.2462 30.1321 19.2571C30.34 19.3207 30.9228 19.3955 31.5343 19.7619C33.0593 20.6778 32.6844 21.8812 33.0667 24.3001L30.5921 24.8632L30.5627 24.3085C30.5483 24.0351 30.3221 23.8231 30.0515 23.8231C30.0423 23.8231 30.0331 23.8233 30.024 23.8239C29.7413 23.8388 29.5243 24.08 29.5393 24.3627L30.0474 33.9751H24.1765C23.8934 33.9751 23.664 34.2045 23.664 34.4876C23.664 34.7707 23.8934 35.0001 24.1765 35.0001H32.5815C34.0849 35.0001 35.0058 33.8698 34.9902 32.5531C34.9967 32.112 35.0235 32.6664 33.8104 21.7305ZM31.8914 11.9664C32.4359 12.5878 33.0775 13.6656 33.5781 15.2187C33.6172 15.34 33.5766 15.4381 33.5488 15.4856C33.5209 15.5336 33.4552 15.618 33.3287 15.6442L32.066 15.9061C32.0164 15.9162 31.9745 15.8761 31.9774 15.8264C31.982 15.7483 31.988 15.6652 31.9944 15.5773C32.0504 14.8046 32.139 13.5798 31.4714 12.3122C31.6287 12.2197 31.7703 12.103 31.8914 11.9664ZM30.769 8.40291C31.5722 8.73405 31.533 9.56578 30.769 9.88085V8.40291ZM30.769 10.9513C30.9339 10.9157 31.1395 10.8472 31.3094 10.7625C31.3245 11.1152 31.0873 11.4211 30.7597 11.5067C30.7606 11.4915 30.768 11.0177 30.769 10.9513ZM18.0509 15.9062L16.7882 15.6443C16.5948 15.6042 16.4788 15.4053 16.5389 15.2186C17.0394 13.6656 17.6809 12.5878 18.2256 11.9664C18.3466 12.1029 18.4883 12.2196 18.6456 12.3123C17.6236 14.2523 18.3942 15.9771 18.0509 15.9062ZM19.3739 8.40312V9.88085C18.6019 9.56215 18.5802 8.73042 19.3739 8.40312ZM18.8083 10.7499C18.9876 10.8423 19.2061 10.9153 19.3739 10.9514C19.3795 11.4757 19.3773 11.4069 19.3836 11.5127C19.3791 11.5118 18.7858 11.1132 18.8083 10.7499ZM4.27837 27.2446L3.92256 33.975C2.71259 33.9096 1.97376 34.1625 1.43113 33.6124C1.20103 33.3792 1.0371 33.0222 1.03163 32.5447C1.02534 32.1829 1.04654 32.2908 1.60052 27.2445H4.27837V27.2446ZM15.6206 10.104V8.62624C16.4034 8.9491 16.4034 9.78097 15.6206 10.104ZM4.22539 10.104C3.44226 9.78111 3.44213 8.94917 4.22539 8.62611V10.104ZM4.42049 7.52217C4.26005 7.54329 4.10569 7.58062 3.95899 7.63141C3.96002 7.15542 3.95229 6.86113 3.97649 6.54497C4.27919 3.17197 7.07263 0.956647 10.0961 1.04353L10.1517 1.04572C13.1762 1.15605 15.7466 3.5781 15.881 6.74759C15.8908 7.34642 15.8851 6.81089 15.8868 7.63134C15.7561 7.58602 15.6191 7.55177 15.4772 7.52996C15.3789 7.3739 15.2331 7.24846 15.0488 7.16848C14.9809 7.13888 14.9635 7.14469 14.8424 7.10558C14.4593 6.98165 13.7338 6.60225 13.1345 5.45224C12.9804 5.15652 12.6774 4.97345 12.3435 4.98268C12.01 4.98876 11.714 5.17949 11.5708 5.48034C11.0851 6.50218 8.89298 8.28691 5.21831 7.28168C4.93441 7.20423 4.62748 7.28728 4.42049 7.52217ZM6.42171 14.2721C4.98391 12.5982 5.25044 11.2964 5.25044 8.34822C7.37464 8.85928 8.97303 8.49991 9.95549 8.09564C11.0157 7.65937 11.8935 6.95335 12.3613 6.17255C13.0009 7.27348 13.8335 7.876 14.5954 8.10213C14.5955 8.66842 14.5953 10.6807 14.5955 10.7198C14.56 10.8941 14.8684 12.8546 13.2166 14.4922C11.7363 15.9293 10.2853 15.7913 9.70092 15.8461C9.62429 15.8425 9.54745 15.8371 9.47089 15.8298C9.39433 15.8224 9.31804 15.8132 9.24257 15.8023C8.12318 15.6384 7.11946 15.0681 6.42171 14.2721ZM12.0688 18.5261L12.2244 18.5648C10.9211 19.7418 8.94965 19.7418 7.64617 18.5648L7.80175 18.5261C7.83176 18.5185 7.86109 18.5084 7.88932 18.4956C8.18846 18.3602 8.38185 18.0154 8.38185 17.6172V16.6644C9.3194 16.9379 10.422 16.9573 11.4889 16.6575V17.6171C11.4889 18.1031 11.771 18.4513 12.0688 18.5261ZM5.71173 19.0463L6.50327 18.8493C8.27685 21.007 11.5834 21.0198 13.3674 18.8493L14.159 19.0463C12.0642 21.8855 7.81337 21.895 5.71173 19.0463ZM19.4961 25.9025L19.0693 33.9751C17.5539 33.9666 16.8965 34.1075 16.4364 33.4682C16.1789 33.1083 16.1314 32.6735 16.1685 32.2337C16.251 31.4973 16.8591 26.0628 16.9418 25.3246L19.4961 25.9025ZM27.6572 16.2565L27.64 16.2211V16.2053L27.6641 16.2529L27.6572 16.2565ZM21.5248 14.2206C20.1167 12.5819 20.3989 11.0426 20.399 8.08518C21.4584 8.24842 23.8247 8.36155 25.0714 6.46396C26.3183 8.36162 28.6848 8.24815 29.744 8.08518C29.744 8.71586 29.744 10.5452 29.744 11.1788C29.7441 15.4405 24.431 17.5121 21.5248 14.2206ZM25.0606 21.0808C24.1153 21.0619 23.656 20.573 23.6063 20.5515C23.3868 20.3573 23.3293 20.2787 23.3355 20.2855C23.05 19.9501 22.895 19.6021 22.8188 19.2122C22.7719 18.9793 22.7799 18.7639 22.7794 18.563C22.9062 18.5297 22.949 18.5257 23.0154 18.4956C23.3145 18.3602 23.5078 18.0154 23.5078 17.6172V16.6582C24.5065 16.9414 25.5871 16.9537 26.6148 16.6639V17.6172C26.6148 18.1031 26.8971 18.4515 27.1949 18.5261L27.3633 18.568C27.3451 18.6428 27.4923 19.5615 26.7498 20.3498C26.5827 20.5281 26.4295 20.6455 26.2255 20.7694C25.6249 21.1197 25.042 21.0821 25.0986 21.0807C25.0931 21.0807 25.0657 21.0808 25.0606 21.0808ZM26.7973 22.381C26.7632 22.3854 25.7163 22.9679 24.2842 22.6883C22.4831 22.3311 21.1429 20.8113 21.0163 19.0019C21.1755 18.9623 21.5806 18.8614 21.7548 18.8181C21.7887 22.0832 26.0628 23.3453 27.8526 20.5976C27.9984 20.3266 28.3759 19.7757 28.3883 18.823L29.1265 19.0068C29.0479 20.2447 28.2849 21.6811 26.7973 22.381ZM33.5656 33.6125C33.0222 34.1632 32.2838 33.9096 31.0737 33.9751L30.6468 25.9019L33.1813 25.3252C34.0188 32.9138 33.9548 32.0172 33.9649 32.5662C33.9685 32.8736 33.8654 33.3087 33.5656 33.6125Z" />
</g>
<defs>
<clipPath id="clip0_192_4651">
<rect width="35" height="35" fill="white"/>
</clipPath>
</defs>
</svg>
