<svg width="35" height="35" viewBox="0 0 35 35" fill="none" xmlns="http://www.w3.org/2000/svg">
<path d="M20.8589 20.6045H8.05607C7.77266 20.6045 7.54297 20.8342 7.54297 21.1176C7.54297 21.401 7.77272 21.6307 8.05607 21.6307H20.8589C21.1424 21.6307 21.372 21.4009 21.372 21.1176C21.372 20.8342 21.1424 20.6045 20.8589 20.6045Z" />
<path d="M16.8833 23.0205H8.05607C7.77266 23.0205 7.54297 23.2503 7.54297 23.5336C7.54297 23.817 7.77272 24.0467 8.05607 24.0467H16.8833C17.1667 24.0467 17.3964 23.817 17.3964 23.5336C17.3964 23.2503 17.1667 23.0205 16.8833 23.0205Z" />
<path d="M31.774 10.5128C32.0574 10.5128 32.2871 10.283 32.2871 9.99966V5.35807C32.2871 5.07472 32.0574 4.84496 31.774 4.84496H25.955V0.513104C25.955 0.229755 25.7253 0 25.4419 0H3.22502C2.9416 0 2.71191 0.229755 2.71191 0.513104V18.1363C2.71191 18.4196 2.9416 18.6494 3.22502 18.6494C3.50844 18.6494 3.73812 18.4196 3.73812 18.1363V1.02628H24.9288V24.7418H21.055C20.7715 24.7418 20.5419 24.9716 20.5419 25.2549V29.1288L3.73819 29.1288V20.1887C3.73819 19.9054 3.5085 19.6756 3.22509 19.6756C2.94167 19.6756 2.71198 19.9054 2.71198 20.1887V29.6419C2.71198 29.9254 2.94167 30.155 3.22509 30.155H9.04403V34.4868C9.04403 34.7702 9.27372 34.9999 9.55714 34.9999H27.3871C27.3913 34.9999 27.3953 34.9995 27.3994 34.9993C27.412 34.999 27.4246 34.9987 27.4371 34.9975C27.4469 34.9965 27.4565 34.9947 27.4662 34.9932C27.4729 34.9921 27.4798 34.9915 27.4866 34.9901C27.4969 34.988 27.507 34.9852 27.5171 34.9826C27.5231 34.981 27.5292 34.9798 27.5351 34.9781C27.5448 34.9751 27.5544 34.9714 27.564 34.9678C27.5701 34.9655 27.5762 34.9637 27.5822 34.9612C27.5915 34.9574 27.6004 34.9529 27.6093 34.9486C27.6154 34.9457 27.6216 34.9431 27.6276 34.94C27.6371 34.9349 27.6463 34.9291 27.6555 34.9234C27.6605 34.9203 27.6658 34.9176 27.6708 34.9143C27.6831 34.9061 27.695 34.8971 27.7067 34.8878C27.7082 34.8865 27.7099 34.8856 27.7114 34.8843C27.7246 34.8735 27.7374 34.862 27.7497 34.8497L32.1366 30.4627C32.1529 30.4465 32.1674 30.4289 32.1813 30.4107C32.1847 30.4063 32.1879 30.402 32.1911 30.3975C32.2041 30.3793 32.2162 30.3605 32.2267 30.3408C32.2272 30.34 32.2275 30.339 32.228 30.3381C32.2379 30.3192 32.2463 30.2996 32.2537 30.2797C32.2557 30.2745 32.2575 30.2693 32.2593 30.264C32.2664 30.2431 32.2726 30.2218 32.277 30.2C32.277 30.1999 32.277 30.1997 32.277 30.1996C32.2813 30.1782 32.2836 30.1563 32.2852 30.1344C32.2856 30.1287 32.2858 30.123 32.286 30.1172C32.2862 30.1114 32.2868 30.1058 32.2868 30.0999V12.0521C32.2868 11.7688 32.0571 11.539 31.7737 11.539C31.4903 11.539 31.2606 11.7688 31.2606 12.0521V29.5867H27.3869C27.1035 29.5867 26.8738 29.8165 26.8738 30.0998V33.9737H10.0701V30.155H21.055C21.0591 30.155 21.0632 30.1544 21.0673 30.1544C21.0798 30.1541 21.0924 30.1537 21.1049 30.1525C21.1147 30.1516 21.1243 30.1498 21.134 30.1482C21.1408 30.1472 21.1477 30.1465 21.1544 30.1451C21.1647 30.1431 21.1748 30.1402 21.1849 30.1375C21.1909 30.136 21.197 30.1348 21.2029 30.133C21.2127 30.1301 21.2222 30.1263 21.2318 30.1228C21.2379 30.1205 21.244 30.1187 21.2501 30.1162C21.2593 30.1124 21.2682 30.1079 21.2771 30.1036C21.2832 30.1006 21.2894 30.0981 21.2954 30.095C21.3049 30.0899 21.3141 30.0841 21.3233 30.0784C21.3283 30.0753 21.3336 30.0725 21.3386 30.0692C21.351 30.061 21.3628 30.0521 21.3745 30.0427C21.376 30.0415 21.3777 30.0405 21.3792 30.0393C21.3924 30.0285 21.4052 30.017 21.4175 30.0048L25.8044 25.6178C25.8207 25.6015 25.8353 25.5839 25.8492 25.5657C25.8525 25.5614 25.8558 25.5571 25.8589 25.5527C25.872 25.5344 25.8841 25.5156 25.8946 25.4959C25.895 25.4951 25.8953 25.4942 25.8957 25.4934C25.9057 25.4745 25.9141 25.4548 25.9216 25.4347C25.9235 25.4295 25.9254 25.4244 25.9271 25.4191C25.9342 25.3982 25.9405 25.3769 25.9448 25.3551C25.9448 25.3549 25.9448 25.3548 25.9448 25.3546C25.9491 25.3333 25.9515 25.3113 25.953 25.2894C25.9534 25.2836 25.9536 25.2779 25.9538 25.2722C25.954 25.2664 25.9547 25.2607 25.9547 25.2549V5.87117H31.2605V9.99966C31.2609 10.283 31.4905 10.5128 31.774 10.5128ZM27.9001 30.6129H30.5352L27.9001 33.248V30.6129ZM21.568 28.4031V25.768H24.2031L21.568 28.4031Z" />
<path d="M17.9809 8.47031C17.7173 8.20672 17.3668 8.06152 16.994 8.06152C16.6212 8.06159 16.2708 8.20679 16.0071 8.47038L12.9795 11.498L11.9591 10.4776C11.6955 10.214 11.345 10.0688 10.9722 10.0688C10.5993 10.0688 10.2488 10.214 9.98525 10.4776C9.44111 11.0218 9.44111 11.9072 9.98525 12.4514L11.9926 14.4587C12.2563 14.7223 12.6068 14.8675 12.9795 14.8675C13.3523 14.8675 13.7028 14.7222 13.9664 14.4587L17.9808 10.4442C18.2444 10.1806 18.3897 9.83005 18.3897 9.45728C18.3897 9.08438 18.2446 8.7339 17.9809 8.47031ZM17.2551 9.71842L13.2406 13.733C13.1708 13.8027 13.0781 13.8412 12.9795 13.8412C12.8823 13.8412 12.787 13.8017 12.7183 13.733L10.711 11.7257C10.5669 11.5816 10.5669 11.3472 10.711 11.2032C10.7808 11.1335 10.8735 11.0951 10.9722 11.0951C11.0708 11.0951 11.1636 11.1335 11.2333 11.2032L12.6165 12.5865C12.7128 12.6827 12.8433 12.7368 12.9794 12.7368C13.1155 12.7368 13.2459 12.6827 13.3422 12.5865L16.7328 9.19595C16.8026 9.12615 16.8953 9.08773 16.994 9.08773C17.0926 9.08773 17.1853 9.12615 17.2551 9.19595C17.3249 9.26574 17.3633 9.3585 17.3633 9.45715C17.3634 9.55586 17.3249 9.64862 17.2551 9.71842Z" />
<path d="M13.9831 3.8252C12.4084 3.8252 10.8999 4.30576 9.62051 5.21494C9.38952 5.37907 9.33532 5.6994 9.49945 5.93046C9.66358 6.16144 9.98377 6.21565 10.215 6.05145C11.3196 5.26634 12.6226 4.8514 13.983 4.8514C17.574 4.8514 20.4955 7.77294 20.4955 11.3639C20.4955 14.9549 17.574 17.8765 13.983 17.8765C10.392 17.8765 7.47048 14.955 7.47048 11.3639C7.47048 9.90418 7.94229 8.52469 8.83493 7.37454C9.00876 7.15067 8.96816 6.82829 8.74428 6.65458C8.52047 6.48088 8.19816 6.52142 8.02432 6.7453C6.99066 8.07707 6.44434 9.67422 6.44434 11.3639C6.44434 15.5208 9.8262 18.9027 13.9831 18.9027C18.1399 18.9027 21.5218 15.5208 21.5218 11.3639C21.5218 7.207 18.14 3.8252 13.9831 3.8252Z" />
</svg>
