<svg width="35" height="35" viewBox="0 0 35 35" fill="none" xmlns="http://www.w3.org/2000/svg">
<g clip-path="url(#clip0_192_4617)">
<path d="M33.922 12.0713C31.0867 3.01442 21.4141 -2.04697 12.3554 0.787208C3.29785 3.62254 -1.76415 13.2975 1.07064 22.3544L2.18366 22.0058C-0.459312 13.5628 4.25987 4.54314 12.704 1.89962C16.7946 0.619864 21.1389 1.00931 24.9351 2.99576C28.733 4.98337 31.5293 8.32997 32.8096 12.42C34.0894 16.51 33.7005 20.8537 31.7135 24.6511C29.727 28.449 26.3804 31.2453 22.2898 32.5257C15.4432 34.6683 7.93828 31.9624 4.03483 25.9443L3.05647 26.5787C6.28303 31.5543 11.8056 34.4194 17.5304 34.4188C19.2329 34.4188 20.9546 34.1657 22.6379 33.6375C27.0253 32.2645 30.6151 29.2647 32.7467 25.1916C34.8782 21.1184 35.2951 16.4588 33.922 12.0713Z"/>
<path d="M14.1171 8.16244L14.4518 7.04531L8.6214 5.29621C8.41735 5.23441 8.19402 5.2904 8.04185 5.44256L6.87578 6.60864C6.73995 6.74447 6.67986 6.93861 6.71486 7.12755C6.74986 7.31643 6.87578 7.47564 7.05126 7.55377L12.2987 9.88591L12.7721 8.82013L8.3008 6.83251L8.62031 6.513L14.1171 8.16244Z"/>
<path d="M19.5339 4.68948C19.5339 4.36765 19.2732 4.10645 18.9508 4.10645C18.9502 4.10645 18.9502 4.10645 18.9497 4.10645C17.667 4.10645 16.4606 4.60608 15.5534 5.51335L10.6093 10.457L8.5972 9.95376C8.39841 9.9042 8.18848 9.96189 8.04328 10.1071L6.87721 11.2732C6.75013 11.4002 6.68833 11.5787 6.71048 11.7565C6.73263 11.9343 6.83524 12.0929 6.98918 12.1851L9.77961 13.8595L11.4541 16.65C11.5462 16.8039 11.7042 16.9065 11.8826 16.9287C11.9059 16.9316 11.9298 16.9328 11.9538 16.9328C12.1071 16.9328 12.2558 16.8721 12.3666 16.7625L13.5327 15.5965C13.6772 15.4513 13.7356 15.2414 13.686 15.0426L13.1834 13.0328L18.2063 8.05946C19.0633 7.1621 19.535 5.98325 19.5339 4.68948ZM12.1263 12.4369C11.98 12.5815 11.9211 12.7926 11.9707 12.9925L12.4738 15.0046L12.0692 15.4092L10.7043 13.1342C10.6547 13.052 10.5865 12.9832 10.5044 12.9343L8.22936 11.5694L8.63397 11.1647L10.6461 11.6679C10.8448 11.7175 11.0548 11.6598 11.2 11.5146L16.3774 6.33721C16.9138 5.80025 17.5889 5.45217 18.3212 5.32563C18.2058 6.04628 17.8775 6.71442 17.3738 7.24208L12.1263 12.4369Z"/>
<path d="M18.3417 15.0937L16.5926 9.1875L15.4743 9.5187L17.1178 15.0681L16.7639 15.3806L14.8201 10.8714L13.749 11.3332L16.0112 16.5806C16.0853 16.752 16.2369 16.8779 16.4193 16.9187C16.4619 16.928 16.5045 16.9327 16.547 16.9327C16.6876 16.9327 16.8251 16.882 16.9324 16.787L18.1685 15.6967C18.3387 15.5467 18.4058 15.3117 18.3417 15.0937Z"/>
<path d="M11.3884 32.1484C7.23599 34.1162 3.97854 34.3704 2.4533 32.8458C-0.190216 30.2022 2.68067 22.5219 9.13084 14.9796L8.24463 14.2217C1.17007 22.4938 -1.55097 30.4914 1.62835 33.6702C2.51633 34.5576 3.77045 35.0001 5.32597 35.0001C7.13919 35.0001 9.36176 34.399 11.8875 33.202L11.3884 32.1484Z"/>
<path d="M31.1258 20.1557C31.0243 19.9662 30.8267 19.8479 30.6115 19.8479H28.6397L27.0515 16.6721C26.9524 16.4744 26.7507 16.3496 26.5297 16.3496H20.6992C20.3768 16.3496 20.1162 16.6108 20.1162 16.9326V21.597C20.1162 21.9195 20.3769 22.18 20.6992 22.18H22.4484V28.5935C22.4484 28.9159 22.7089 29.1765 23.0314 29.1765H25.9466C26.1011 29.1765 26.2492 29.1153 26.3594 29.0051L28.6915 26.6729C28.8011 26.5639 28.8624 26.4158 28.8624 26.2607V24.1052L31.0965 20.7539C31.2156 20.5755 31.2272 20.3452 31.1258 20.1557ZM27.7937 23.6056C27.7301 23.7012 27.6957 23.8143 27.6957 23.9292V26.02L25.7053 28.0105H23.6145H23.6139V21.597C23.6139 21.2745 23.3533 21.014 23.0308 21.014H21.2817V17.5157H26.1688L27.757 20.6916C27.8561 20.8892 28.0578 21.014 28.2788 21.014H29.5218L27.7937 23.6056Z"/>
<path d="M31.532 15.1831L29.3678 11.3957C29.264 11.2138 29.0704 11.1018 28.8617 11.1018H25.3635C25.1687 11.1018 24.9868 11.1991 24.8784 11.3612L23.8855 12.8509H22.4483V9.93572H25.3635C25.5186 9.93572 25.6661 9.87447 25.7757 9.76489L27.937 7.60357H30.6108V6.4375H27.6956C27.5405 6.4375 27.393 6.49875 27.2834 6.60833L25.1221 8.76964H21.8653C21.5428 8.76964 21.2822 9.03084 21.2822 9.35268V13.4339C21.2822 13.7558 21.5429 14.017 21.8653 14.017H24.1974C24.3922 14.017 24.5741 13.9196 24.6825 13.7575L25.6754 12.2679H28.5236L30.6878 16.0553C30.7916 16.2372 30.9852 16.3492 31.1939 16.3492H33.526V15.1831H31.532Z"/>
<path d="M17.2006 21.0138H13.9438L12.3655 19.4355C12.2565 19.3258 12.1078 19.2646 11.9533 19.2646H9.03812C8.71628 19.2646 8.45508 19.5253 8.45508 19.8477V23.9289C8.45508 24.2514 8.71628 24.512 9.03812 24.512H11.3703V30.3424C11.3703 30.5634 11.495 30.7651 11.6927 30.8642C11.7749 30.905 11.8647 30.9254 11.9534 30.9254C12.077 30.9254 12.2 30.8864 12.3032 30.8088L14.6353 29.0597C14.7822 28.9495 14.8686 28.7764 14.8686 28.5933V27.124L17.5651 24.9674C17.7033 24.8566 17.7837 24.6893 17.7837 24.512V21.5969C17.7837 21.2744 17.5225 21.0138 17.2006 21.0138ZM16.6176 24.2322L13.921 26.3888C13.7829 26.4997 13.7024 26.6669 13.7024 26.8442V28.3018L12.5363 29.1764V23.929C12.5363 23.6066 12.2751 23.346 11.9533 23.346H9.62115V20.4308H11.7119L13.2902 22.0091C13.3992 22.1186 13.5479 22.1799 13.7024 22.1799H16.6176V24.2322Z"/>
<path d="M5.45596 12.5515L3.70685 9.63632C3.60192 9.46084 3.41181 9.35352 3.20721 9.35352H2.62418V10.5196H2.87724L4.22235 12.7614L2.79507 14.1886C2.68543 14.2977 2.62424 14.4464 2.62424 14.6008V16.35H0.875V17.516H3.20714C3.52898 17.516 3.79018 17.2548 3.79018 16.933V14.8422L5.36846 13.2639C5.5574 13.0745 5.59356 12.7812 5.45596 12.5515Z"/>
<path d="M18.3671 0.607422V1.3187L16.4763 1.79154C16.4115 1.80788 16.3497 1.83529 16.2943 1.872L14.8268 2.85036L11.6312 1.25225L11.1094 2.29528L14.6076 4.04439C14.6898 4.0852 14.779 4.10564 14.8682 4.10564C14.9814 4.10564 15.0939 4.07242 15.1912 4.00768L16.8564 2.89759L19.0912 2.33903C19.3506 2.27429 19.5331 2.04112 19.5331 1.77349V0.607422H18.3671Z"/>
</g>
<defs>
<clipPath id="clip0_192_4617">
<rect width="35" height="35" fill="white"/>
</clipPath>
</defs>
</svg>
