<svg width="35" height="35" viewBox="0 0 35 35" fill="none" xmlns="http://www.w3.org/2000/svg">
<g clip-path="url(#clip0_192_4668)">
<path d="M2.83984 16.0222V26.9452C2.83984 28.5089 4.11194 29.781 5.67566 29.781H7.42669C7.80417 29.781 8.11028 29.4749 8.11028 29.0974C8.11028 28.72 7.80417 28.4138 7.42669 28.4138H5.67566C4.86581 28.4138 4.20703 27.755 4.20703 26.9452V16.0222C4.20703 15.2124 4.86588 14.5536 5.67566 14.5536H29.3247C30.1345 14.5536 30.7933 15.2124 30.7933 16.0222V26.9452C30.7933 27.7551 30.1344 28.4138 29.3247 28.4138H26.3942L24.5422 26.5619L28.1634 24.8523C28.4383 24.7226 28.5944 24.4269 28.5467 24.1268C28.4989 23.8267 28.2588 23.5941 27.9573 23.556L17.2031 22.1964C16.9934 22.17 16.7834 22.2417 16.634 22.3912C16.5033 22.5219 16.4319 22.6991 16.4339 22.8819C16.4341 22.908 16.4359 22.9342 16.4392 22.9603L17.1287 28.4138H13.4159C13.0384 28.4138 12.7323 28.7199 12.7323 29.0974C12.7323 29.4749 13.0384 29.781 13.4159 29.781H17.3015L17.7989 33.7142C17.8369 34.0154 18.0692 34.2555 18.369 34.3034C18.6689 34.3515 18.9645 34.1959 19.0946 33.9215L20.8242 30.2768L25.3471 34.7997C25.4806 34.9331 25.6555 34.9999 25.8305 34.9999C26.0054 34.9999 26.1803 34.9331 26.3138 34.7997L29.0635 32.0501C29.3304 31.7831 29.3304 31.3503 29.0635 31.0833L27.7611 29.7809H29.3247C30.8884 29.7809 32.1605 28.5088 32.1605 26.9451V16.0222C32.1605 14.4585 30.8884 13.1864 29.3247 13.1864H29.0793C29.5081 12.3541 29.7374 11.4252 29.7374 10.476C29.7374 9.94711 29.6661 9.4191 29.5254 8.90682C29.4254 8.54273 29.0494 8.32856 28.6852 8.42857C28.3211 8.52858 28.107 8.90477 28.207 9.26878C28.3153 9.66321 28.3702 10.0693 28.3702 10.476C28.3702 11.4549 28.0543 12.4061 27.4751 13.1864H20.1658C20.1065 13.1067 20.0498 13.0251 19.996 12.9419C21.2961 11.1496 21.7748 8.8174 21.3556 6.65041C22.0881 6.17545 22.932 5.92635 23.82 5.92635C24.0243 5.92635 24.2362 5.94132 24.4496 5.97078C24.8239 6.0228 25.1688 5.76133 25.2204 5.38733C25.2721 5.01334 25.0109 4.66819 24.6369 4.61658C24.3616 4.57844 24.0867 4.55916 23.82 4.55916C22.8062 4.55916 21.8366 4.80949 20.9698 5.28876C19.7689 2.12481 16.6909 0 13.3049 0C12.3403 0 11.3955 0.166182 10.497 0.49376C8.92472 1.06695 7.57729 2.10813 6.6005 3.50472C5.62405 4.90089 5.10787 6.52347 5.10787 8.19718C5.10787 10.0187 5.71244 11.7681 6.80175 13.1864H5.67566C4.11194 13.1863 2.83984 14.4585 2.83984 16.0222V16.0222ZM25.8305 33.3496L21.1055 28.6247C20.9762 28.4953 20.8019 28.4244 20.6222 28.4244C20.5835 28.4244 20.5445 28.4277 20.5058 28.4344C20.2868 28.4723 20.0998 28.6142 20.0046 28.8149L18.8619 31.2229L18.5829 29.0164C18.5827 29.0148 18.5828 29.0132 18.5826 29.0116L17.9062 23.6634L25.4571 24.6181L23.08 25.7402C22.8789 25.8353 22.7365 26.0222 22.6984 26.2413C22.6602 26.4605 22.7312 26.6844 22.8885 26.8418L27.6134 31.5667L25.8305 33.3496ZM6.47506 8.19711C6.47506 4.4841 9.59778 1.36719 13.3049 1.36719C17.0161 1.36719 20.1342 4.49244 20.1342 8.19711C20.1342 10.068 19.3282 11.9142 17.9672 13.1863H8.64226C7.28102 11.9122 6.47506 10.0659 6.47506 8.19711V8.19711Z" />
<path d="M17.8174 19.9833C18.1949 19.9833 18.501 19.6772 18.501 19.2997V17.3213C18.501 16.9438 18.1949 16.6377 17.8174 16.6377C17.4399 16.6377 17.1338 16.9438 17.1338 17.3213V19.2997C17.1338 19.6773 17.4399 19.9833 17.8174 19.9833Z" />
<path d="M11.375 24.4258C11.375 24.8033 11.6811 25.1094 12.0586 25.1094H14.122C14.4995 25.1094 14.8056 24.8033 14.8056 24.4258C14.8056 24.0483 14.4995 23.7422 14.122 23.7422H12.0586C11.6811 23.7422 11.375 24.0483 11.375 24.4258Z" />
<path d="M14.3469 21.2992C14.4756 21.4089 14.6332 21.4625 14.7899 21.4625C14.9833 21.4625 15.1754 21.381 15.3106 21.2223C15.5554 20.9349 15.521 20.5034 15.2337 20.2586L13.585 18.8537C13.2976 18.6088 12.8661 18.6434 12.6213 18.9306C12.3764 19.218 12.4109 19.6495 12.6982 19.8944L14.3469 21.2992Z" />
<path d="M11.0473 28.718C10.8883 28.4747 10.5755 28.3616 10.297 28.4393C10.0103 28.5194 9.803 28.7821 9.79609 29.0806C9.78194 29.6881 10.5503 30.0143 10.973 29.5704C11.1913 29.3412 11.2235 28.9819 11.0473 28.718V28.718Z" />
<path d="M26.7555 6.96837C26.915 7.21173 27.2272 7.32486 27.5062 7.2472C27.793 7.16743 27.9998 6.90349 28.0068 6.60565C28.0207 6.02111 27.3115 5.69175 26.8732 6.07511C26.6183 6.29803 26.5682 6.68693 26.7555 6.96837Z" />
<path d="M14.2557 6.79009C14.1357 6.74771 14.0134 6.70361 13.891 6.65802V4.51789C14.0404 4.56902 14.1906 4.64203 14.3125 4.74375C14.4424 4.8521 14.5767 4.9277 14.7524 4.9277C15.0923 4.9277 15.3678 4.65215 15.3678 4.31227C15.3678 4.12079 15.2804 3.94982 15.1437 3.83648C15.115 3.8101 14.6517 3.39276 13.891 3.24941V3.10449C13.891 2.76468 13.6156 2.48926 13.2758 2.48926C12.936 2.48926 12.6606 2.76468 12.6606 3.10449V3.29173C12.6116 3.30396 12.5622 3.3175 12.5122 3.33254C11.7541 3.56086 11.1879 4.20836 11.0346 5.02225C10.894 5.76805 11.1355 6.48917 11.6646 6.90425C11.9217 7.10591 12.2365 7.29068 12.6606 7.48346V10.2891C12.3417 10.2502 12.1087 10.1503 11.7392 9.90851C11.4549 9.72243 11.0736 9.80228 10.8875 10.0866C10.7015 10.371 10.7813 10.7522 11.0656 10.9383C11.6891 11.346 12.1257 11.4837 12.6605 11.5257V11.713C12.6605 12.0528 12.9359 12.3282 13.2757 12.3282C13.6156 12.3282 13.891 12.0528 13.891 11.713V11.4675C14.9702 11.2047 15.6624 10.2877 15.8144 9.38351C16.0114 8.21237 15.3995 7.19437 14.2557 6.79009V6.79009ZM12.6606 6.09788C12.5743 6.04518 12.4944 5.99131 12.424 5.93614C12.2602 5.8077 12.1894 5.53843 12.2437 5.25022C12.2862 5.02464 12.4173 4.76118 12.6606 4.60587V6.09788ZM14.601 9.17959C14.5376 9.557 14.2966 9.95506 13.891 10.1639V7.96751C14.6857 8.27485 14.6362 8.97048 14.601 9.17959Z" />
</g>
<defs>
<clipPath id="clip0_192_4668">
<rect width="35" height="35" fill="white"/>
</clipPath>
</defs>
</svg>
