<svg width="15" height="15" viewBox="0 0 15 15" fill="none" xmlns="http://www.w3.org/2000/svg">
<g clip-path="url(#clip0_192_4306)">
<path d="M7.5 15C11.6417 15 15 11.6417 15 7.5C15 3.3583 11.6417 0 7.5 0C3.3583 0 0 3.3583 0 7.5C0 11.6417 3.3583 15 7.5 15Z" fill="#F0F0F0"/>
<path d="M14.5333 10.1077C15.1556 8.42452 15.1556 6.57431 14.5333 4.89111H0.466702C-0.155567 6.57431 -0.155567 8.42452 0.466702 10.1077L7.5 10.7631L14.5333 10.1077Z" fill="#0052B4"/>
<path d="M7.5001 15C10.7251 15 13.4749 12.9668 14.5334 10.1074H0.466797C1.52646 12.9668 4.2751 15 7.5001 15Z" fill="#D80027"/>
</g>
<defs>
<clipPath id="clip0_192_4306">
<rect width="15" height="15" fill="white"/>
</clipPath>
</defs>
</svg>
