<svg width="15" height="15" viewBox="0 0 15 15" fill="none" xmlns="http://www.w3.org/2000/svg">
<g clip-path="url(#clip0_192_4310)">
<path d="M1.32115 3.25049C0.837501 3.95248 0.469942 4.7407 0.24707 5.58788H3.65868L1.32115 3.25049Z" fill="#29337A"/>
<path d="M5.39941 0.300293C4.53528 0.55195 3.73499 0.953519 3.03027 1.47729L5.39941 3.84642V0.300293Z" fill="#29337A"/>
<path d="M3.20703 13.6482C3.86805 14.1107 4.60655 14.4688 5.39997 14.6998V11.4556L3.20703 13.6482Z" fill="#29337A"/>
<path d="M0.333008 9.71436C0.580992 10.5176 0.960995 11.2628 1.44664 11.9258L3.65804 9.71436H0.333008Z" fill="#29337A"/>
<path d="M1.4448 3.07617C1.40287 3.13349 1.36155 3.19163 1.32105 3.25037L3.65858 5.58777H0.246968C0.191677 5.7982 0.146552 6.01268 0.109375 6.2301H4.59899L1.4448 3.07617Z" fill="white"/>
<path d="M3.03223 13.5243C3.08929 13.5668 3.14794 13.6073 3.20617 13.648L5.39911 11.4553V14.6996C5.60979 14.7612 5.82376 14.8144 6.04144 14.8571V10.5151L3.03223 13.5243Z" fill="white"/>
<path d="M0.166992 9.07227C0.213543 9.28991 0.268485 9.50427 0.333497 9.7146H3.65856L1.44716 11.926C1.68767 12.2546 1.95437 12.563 2.24415 12.8481L6.01999 9.07227H0.166992Z" fill="white"/>
<path d="M5.39919 0.30009V3.84622L3.03003 1.47721C2.70342 1.7201 2.39812 1.98974 2.11523 2.28165L6.0414 6.20781V0.142578C5.82385 0.185582 5.60987 0.238877 5.39919 0.30009Z" fill="white"/>
<path d="M5.39947 9.69189L5.37695 9.71454H5.39947V9.69189Z" fill="#D32030"/>
<path d="M6.01953 9.07193H6.04202V9.04932L6.01953 9.07193Z" fill="#D32030"/>
<path d="M8.90545 6.22998H8.88379V6.25177L8.90545 6.22998Z" fill="#D32030"/>
<path d="M5.42155 5.58769L5.39941 5.56543V5.58769H5.42155Z" fill="#D32030"/>
<path d="M6.04199 6.20752V6.22969H6.06416L6.04199 6.20752Z" fill="#D32030"/>
<path d="M9.52637 13.0396V14.7208C10.3301 14.4958 11.0795 14.1412 11.7497 13.6791L9.92806 11.8574C9.78249 12.3689 9.72923 12.6333 9.52637 13.0396Z" fill="#252F6C"/>
<path d="M9.93766 3.435L11.9263 1.44635C11.2119 0.923149 10.4014 0.524431 9.52637 0.279297V2.00635C9.76026 2.4747 9.77992 2.83058 9.93766 3.435Z" fill="#252F6C"/>
<path d="M13.5227 11.9695C14.0235 11.2957 14.4138 10.5353 14.6673 9.71436H11.2676L13.5227 11.9695Z" fill="#252F6C"/>
<path d="M14.7531 5.58813C14.5254 4.72305 14.1469 3.92004 13.648 3.20703L11.2666 5.58813H14.7531Z" fill="#252F6C"/>
<path d="M10.375 9.19922L10.8904 9.7146L13.3573 12.1815C13.4133 12.1114 13.469 12.0416 13.5225 11.9697L11.2674 9.7146H14.6672C14.732 9.50439 14.787 9.28994 14.8335 9.07227H10.4232C10.416 9.16334 10.3836 9.10875 10.375 9.19922Z" fill="#E7E7E7"/>
<path d="M9.85955 3.81105L12.0955 1.57489C12.0394 1.53144 11.9833 1.48822 11.9261 1.44629L9.93745 3.43494C9.95806 3.51357 9.84036 3.73052 9.85955 3.81105Z" fill="#E7E7E7"/>
<path d="M9.52612 1.86807V0.279084C9.3157 0.22012 9.10147 0.17015 8.88379 0.129395V0.904475C9.12278 1.16357 9.33701 1.48902 9.52612 1.86807Z" fill="#E7E7E7"/>
<path d="M10.3247 6.22993H14.891C14.8539 6.0125 14.8087 5.79815 14.7534 5.5876H11.2669L13.6483 3.2065C13.4141 2.87206 13.154 2.55754 12.8698 2.26611L10.1875 4.94811C10.2597 5.43461 10.2921 5.71715 10.3247 6.22993Z" fill="#E7E7E7"/>
<path d="M9.81934 11.7487L11.7495 13.679C12.0705 13.4579 12.3729 13.2119 12.655 12.9447L10.1161 10.4058C10.0351 10.8753 9.93894 11.3289 9.81934 11.7487Z" fill="#E7E7E7"/>
<path d="M8.88379 14.0061V14.87C9.10144 14.8295 9.31557 14.7793 9.52612 14.7203V13.0391C9.33688 13.4183 9.12265 13.7474 8.88379 14.0061Z" fill="#E7E7E7"/>
<path d="M10.1869 4.94806L12.8689 2.26606C12.6274 2.01808 12.3685 1.78729 12.0947 1.57471L9.9873 3.68249C10.081 4.07399 10.1235 4.52211 10.1869 4.94806Z" fill="#D71F28"/>
<path d="M7.12598 0.00924675C7.25093 0.00319836 7.37551 0 7.50018 0C7.37478 0 7.24998 0.00319836 7.12598 0.00924675Z" fill="#D32030"/>
<path d="M7.49996 15.0002C7.37526 15.0002 7.25068 14.9968 7.12598 14.9907C7.24998 14.997 7.37456 15.0002 7.49996 15.0002Z" fill="#D32030"/>
<path d="M7.5 15C7.9732 15 8.43528 14.9542 8.8841 14.8702V14.0063C8.49013 14.4334 8.02925 15 7.5 15Z" fill="#D32030"/>
<path d="M14.8907 6.22998H10.3839C10.4436 7.17062 10.4363 8.13788 10.3623 9.07209H14.8337C14.9419 8.56488 14.9999 8.03933 14.9999 7.50005C14.9999 7.06684 14.9613 6.64314 14.8907 6.22998Z" fill="#D71F28"/>
<path d="M10.3753 9.19922C10.3336 9.64237 10.1884 9.98766 10.1162 10.4057L12.655 12.9445C12.9062 12.7065 13.141 12.4519 13.3575 12.1816L10.8907 9.71447L10.3753 9.19922Z" fill="#D71F28"/>
<path d="M8.88413 0.96027V0.12955C8.43544 0.0458221 7.97336 0 7.5 0C8.02925 0 8.49013 0.533367 8.88413 0.96027Z" fill="#D32030"/>
<path d="M9.52637 13.3637C9.72923 12.9573 9.90317 12.4894 10.0488 11.978L9.52637 11.4556V13.3637Z" fill="#29337A"/>
<path d="M10.1139 3.2585C9.95587 2.65407 9.76026 2.10459 9.52637 1.63623V3.84573L10.1139 3.2585Z" fill="#29337A"/>
<path d="M10.5205 9.34476C10.5291 9.25429 10.5368 9.16347 10.5441 9.07227H10.248L10.5205 9.34476Z" fill="white"/>
<path d="M9.52612 3.84607V1.63645C9.33688 1.25739 9.12278 0.931729 8.88379 0.672852V4.78658L10.1737 3.49662C10.1543 3.4161 10.1339 3.33721 10.1136 3.25858L9.52612 3.84607Z" fill="white"/>
<path d="M8.90527 6.23017H10.5655C10.533 5.71742 10.4811 5.21294 10.409 4.72656L8.90527 6.23017Z" fill="white"/>
<path d="M8.88379 14.3272C9.12278 14.0681 9.33688 13.7426 9.52612 13.3636V11.4555L10.0486 11.9779C10.1684 11.5579 10.269 11.1092 10.3502 10.6396L8.88382 9.17334L8.88379 14.3272Z" fill="white"/>
<path d="M8.884 14.3271V9.17331L10.3503 10.6397C10.4224 10.2216 10.4792 9.78791 10.5207 9.34466L10.2482 9.07217H10.5443C10.6183 8.13793 10.6255 7.17066 10.5658 6.23006H8.90557L10.4092 4.72645C10.3458 4.30037 10.2674 3.88826 10.1738 3.49663L8.88404 4.78659V0.672859C8.49 0.245831 8.02912 0 7.49987 0C7.37517 0 7.25059 0.00319836 7.12567 0.00924675C6.75678 0.0277086 6.39501 0.0730873 6.04186 0.142723V6.20793L2.11561 2.28176C1.87437 2.5307 1.64997 2.79594 1.44461 3.07625L3.95622 5.58785L4.59877 6.23019H0.109188C0.0388553 6.64322 0 7.06692 0 7.50013C0 8.03954 0.0582672 8.56496 0.166251 9.07217H6.01938L2.24351 12.848C2.49076 13.0909 2.75401 13.3171 3.03268 13.5241L6.04177 10.515V14.8571C6.39489 14.9267 6.7569 14.972 7.12579 14.9905C7.2505 14.9966 7.37507 15 7.49978 15C8.02912 15 8.49 14.7542 8.884 14.3271Z" fill="#E51D35"/>
</g>
<defs>
<clipPath id="clip0_192_4310">
<rect width="15" height="15" fill="white"/>
</clipPath>
</defs>
</svg>
